%TF.GenerationSoftware,KiCad,Pcbnew,(5.1.9)-1*%
%TF.CreationDate,2021-07-20T01:30:18-07:00*%
%TF.ProjectId,retrocution-usb-hub,72657472-6f63-4757-9469-6f6e2d757362,rev?*%
%TF.SameCoordinates,Original*%
%TF.FileFunction,Copper,L1,Top*%
%TF.FilePolarity,Positive*%
%FSLAX46Y46*%
G04 Gerber Fmt 4.6, Leading zero omitted, Abs format (unit mm)*
G04 Created by KiCad (PCBNEW (5.1.9)-1) date 2021-07-20 01:30:18*
%MOMM*%
%LPD*%
G01*
G04 APERTURE LIST*
%TA.AperFunction,ComponentPad*%
%ADD10C,3.100000*%
%TD*%
%TA.AperFunction,ConnectorPad*%
%ADD11C,4.700000*%
%TD*%
%TA.AperFunction,ComponentPad*%
%ADD12C,0.410000*%
%TD*%
%TA.AperFunction,SMDPad,CuDef*%
%ADD13C,2.030000*%
%TD*%
%TA.AperFunction,SMDPad,CuDef*%
%ADD14C,0.100000*%
%TD*%
%TA.AperFunction,ComponentPad*%
%ADD15C,1.700000*%
%TD*%
%TA.AperFunction,ComponentPad*%
%ADD16O,1.700000X1.700000*%
%TD*%
%TA.AperFunction,ComponentPad*%
%ADD17R,1.700000X1.700000*%
%TD*%
%TA.AperFunction,ComponentPad*%
%ADD18C,1.500000*%
%TD*%
%TA.AperFunction,ComponentPad*%
%ADD19C,1.431000*%
%TD*%
%TA.AperFunction,ComponentPad*%
%ADD20C,3.495000*%
%TD*%
%TA.AperFunction,SMDPad,CuDef*%
%ADD21R,0.440000X1.525000*%
%TD*%
%TA.AperFunction,ViaPad*%
%ADD22C,0.800000*%
%TD*%
%TA.AperFunction,Conductor*%
%ADD23C,0.250000*%
%TD*%
%TA.AperFunction,Conductor*%
%ADD24C,0.381000*%
%TD*%
%TA.AperFunction,Conductor*%
%ADD25C,0.254000*%
%TD*%
%TA.AperFunction,Conductor*%
%ADD26C,0.100000*%
%TD*%
G04 APERTURE END LIST*
D10*
%TO.P,REF\u002A\u002A,1*%
%TO.N,N/C*%
X131500880Y-79298800D03*
D11*
X131500880Y-79298800D03*
%TD*%
D10*
%TO.P,REF\u002A\u002A,1*%
%TO.N,N/C*%
X146776440Y-79324200D03*
D11*
X146776440Y-79324200D03*
%TD*%
D10*
%TO.P,REF\u002A\u002A,1*%
%TO.N,N/C*%
X156052520Y-79354680D03*
D11*
X156052520Y-79354680D03*
%TD*%
D10*
%TO.P,REF\u002A\u002A,1*%
%TO.N,N/C*%
X183388000Y-100980240D03*
D11*
X183388000Y-100980240D03*
%TD*%
D10*
%TO.P,REF\u002A\u002A,1*%
%TO.N,N/C*%
X183311800Y-79298800D03*
D11*
X183311800Y-79298800D03*
%TD*%
D10*
%TO.P,REF\u002A\u002A,1*%
%TO.N,N/C*%
X156072840Y-100980240D03*
D11*
X156072840Y-100980240D03*
%TD*%
%TO.P,REF\u002A\u002A,1*%
%TO.N,N/C*%
X155864560Y-128107440D03*
D10*
X155864560Y-128107440D03*
%TD*%
%TO.P,REF\u002A\u002A,1*%
%TO.N,N/C*%
X155666440Y-108818680D03*
D11*
X155666440Y-108818680D03*
%TD*%
D10*
%TO.P,REF\u002A\u002A,1*%
%TO.N,N/C*%
X183499760Y-108747560D03*
D11*
X183499760Y-108747560D03*
%TD*%
%TO.P,REF\u002A\u002A,1*%
%TO.N,N/C*%
X183591200Y-128102360D03*
D10*
X183591200Y-128102360D03*
%TD*%
%TO.P,REF\u002A\u002A,1*%
%TO.N,N/C*%
X147101560Y-128148080D03*
D11*
X147101560Y-128148080D03*
%TD*%
%TO.P,REF\u002A\u002A,1*%
%TO.N,N/C*%
X131226560Y-128127760D03*
D10*
X131226560Y-128127760D03*
%TD*%
D12*
%TO.P,U1,*%
%TO.N,Net-(J4-Pad5)*%
X171749720Y-88163400D03*
X164637720Y-95351600D03*
X157525720Y-88138000D03*
X164637720Y-81051400D03*
D13*
%TO.P,U1,5*%
X164637720Y-81571400D03*
%TA.AperFunction,SMDPad,CuDef*%
D14*
%TO.P,U1,1*%
%TO.N,Net-(J4-Pad1)*%
G36*
X165060304Y-78722572D02*
G01*
X165337503Y-78777710D01*
X165607963Y-78859753D01*
X165869079Y-78967911D01*
X166118336Y-79101142D01*
X166353334Y-79258162D01*
X166571810Y-79437461D01*
X166771659Y-79637310D01*
X166950958Y-79855786D01*
X167107978Y-80090784D01*
X167241209Y-80340041D01*
X167349367Y-80601157D01*
X167385842Y-80721400D01*
X168408720Y-80721400D01*
X168408720Y-82421400D01*
X167385842Y-82421400D01*
X167349367Y-82541643D01*
X167241209Y-82802759D01*
X167107978Y-83052016D01*
X166950958Y-83287014D01*
X166771659Y-83505490D01*
X166571810Y-83705339D01*
X166353334Y-83884638D01*
X166118336Y-84041658D01*
X165869079Y-84174889D01*
X165607963Y-84283047D01*
X165337503Y-84365090D01*
X165060304Y-84420228D01*
X164779035Y-84447931D01*
X164496405Y-84447931D01*
X164215136Y-84420228D01*
X163937937Y-84365090D01*
X163667477Y-84283047D01*
X163406361Y-84174889D01*
X163157104Y-84041658D01*
X162922106Y-83884638D01*
X162703630Y-83705339D01*
X162503781Y-83505490D01*
X162324482Y-83287014D01*
X162167462Y-83052016D01*
X162034231Y-82802759D01*
X161926073Y-82541643D01*
X161844030Y-82271183D01*
X161788892Y-81993984D01*
X161761189Y-81712715D01*
X161761189Y-81473265D01*
X162640129Y-81473265D01*
X162640129Y-81669535D01*
X162659367Y-81864861D01*
X162697657Y-82057360D01*
X162754632Y-82245180D01*
X162829741Y-82426510D01*
X162922263Y-82599605D01*
X163031305Y-82762799D01*
X163155818Y-82914518D01*
X163294602Y-83053302D01*
X163446321Y-83177815D01*
X163609515Y-83286857D01*
X163782610Y-83379379D01*
X163963940Y-83454488D01*
X164151760Y-83511463D01*
X164344259Y-83549753D01*
X164539585Y-83568991D01*
X164735855Y-83568991D01*
X164931181Y-83549753D01*
X165123680Y-83511463D01*
X165311500Y-83454488D01*
X165492830Y-83379379D01*
X165665925Y-83286857D01*
X165829119Y-83177815D01*
X165980838Y-83053302D01*
X166119622Y-82914518D01*
X166244135Y-82762799D01*
X166353177Y-82599605D01*
X166445699Y-82426510D01*
X166520808Y-82245180D01*
X166577783Y-82057360D01*
X166616073Y-81864861D01*
X166635311Y-81669535D01*
X166635311Y-81473265D01*
X166616073Y-81277939D01*
X166577783Y-81085440D01*
X166520808Y-80897620D01*
X166445699Y-80716290D01*
X166353177Y-80543195D01*
X166244135Y-80380001D01*
X166119622Y-80228282D01*
X165980838Y-80089498D01*
X165829119Y-79964985D01*
X165665925Y-79855943D01*
X165492830Y-79763421D01*
X165311500Y-79688312D01*
X165123680Y-79631337D01*
X164931181Y-79593047D01*
X164735855Y-79573809D01*
X164539585Y-79573809D01*
X164344259Y-79593047D01*
X164151760Y-79631337D01*
X163963940Y-79688312D01*
X163782610Y-79763421D01*
X163609515Y-79855943D01*
X163446321Y-79964985D01*
X163294602Y-80089498D01*
X163155818Y-80228282D01*
X163031305Y-80380001D01*
X162922263Y-80543195D01*
X162829741Y-80716290D01*
X162754632Y-80897620D01*
X162697657Y-81085440D01*
X162659367Y-81277939D01*
X162640129Y-81473265D01*
X161761189Y-81473265D01*
X161761189Y-81430085D01*
X161788892Y-81148816D01*
X161844030Y-80871617D01*
X161926073Y-80601157D01*
X162034231Y-80340041D01*
X162167462Y-80090784D01*
X162324482Y-79855786D01*
X162503781Y-79637310D01*
X162703630Y-79437461D01*
X162922106Y-79258162D01*
X163157104Y-79101142D01*
X163406361Y-78967911D01*
X163667477Y-78859753D01*
X163937937Y-78777710D01*
X164215136Y-78722572D01*
X164496405Y-78694869D01*
X164779035Y-78694869D01*
X165060304Y-78722572D01*
G37*
%TD.AperFunction*%
D13*
%TO.P,U1,5*%
%TO.N,Net-(J4-Pad5)*%
X164637720Y-95771400D03*
%TA.AperFunction,SMDPad,CuDef*%
D14*
%TO.P,U1,4*%
%TO.N,Net-(J4-Pad4)*%
G36*
X165060304Y-92922572D02*
G01*
X165337503Y-92977710D01*
X165607963Y-93059753D01*
X165869079Y-93167911D01*
X166118336Y-93301142D01*
X166353334Y-93458162D01*
X166571810Y-93637461D01*
X166771659Y-93837310D01*
X166950958Y-94055786D01*
X167107978Y-94290784D01*
X167241209Y-94540041D01*
X167349367Y-94801157D01*
X167385842Y-94921400D01*
X168408720Y-94921400D01*
X168408720Y-96621400D01*
X167385842Y-96621400D01*
X167349367Y-96741643D01*
X167241209Y-97002759D01*
X167107978Y-97252016D01*
X166950958Y-97487014D01*
X166771659Y-97705490D01*
X166571810Y-97905339D01*
X166353334Y-98084638D01*
X166118336Y-98241658D01*
X165869079Y-98374889D01*
X165607963Y-98483047D01*
X165337503Y-98565090D01*
X165060304Y-98620228D01*
X164779035Y-98647931D01*
X164496405Y-98647931D01*
X164215136Y-98620228D01*
X163937937Y-98565090D01*
X163667477Y-98483047D01*
X163406361Y-98374889D01*
X163157104Y-98241658D01*
X162922106Y-98084638D01*
X162703630Y-97905339D01*
X162503781Y-97705490D01*
X162324482Y-97487014D01*
X162167462Y-97252016D01*
X162034231Y-97002759D01*
X161926073Y-96741643D01*
X161844030Y-96471183D01*
X161788892Y-96193984D01*
X161761189Y-95912715D01*
X161761189Y-95673265D01*
X162640129Y-95673265D01*
X162640129Y-95869535D01*
X162659367Y-96064861D01*
X162697657Y-96257360D01*
X162754632Y-96445180D01*
X162829741Y-96626510D01*
X162922263Y-96799605D01*
X163031305Y-96962799D01*
X163155818Y-97114518D01*
X163294602Y-97253302D01*
X163446321Y-97377815D01*
X163609515Y-97486857D01*
X163782610Y-97579379D01*
X163963940Y-97654488D01*
X164151760Y-97711463D01*
X164344259Y-97749753D01*
X164539585Y-97768991D01*
X164735855Y-97768991D01*
X164931181Y-97749753D01*
X165123680Y-97711463D01*
X165311500Y-97654488D01*
X165492830Y-97579379D01*
X165665925Y-97486857D01*
X165829119Y-97377815D01*
X165980838Y-97253302D01*
X166119622Y-97114518D01*
X166244135Y-96962799D01*
X166353177Y-96799605D01*
X166445699Y-96626510D01*
X166520808Y-96445180D01*
X166577783Y-96257360D01*
X166616073Y-96064861D01*
X166635311Y-95869535D01*
X166635311Y-95673265D01*
X166616073Y-95477939D01*
X166577783Y-95285440D01*
X166520808Y-95097620D01*
X166445699Y-94916290D01*
X166353177Y-94743195D01*
X166244135Y-94580001D01*
X166119622Y-94428282D01*
X165980838Y-94289498D01*
X165829119Y-94164985D01*
X165665925Y-94055943D01*
X165492830Y-93963421D01*
X165311500Y-93888312D01*
X165123680Y-93831337D01*
X164931181Y-93793047D01*
X164735855Y-93773809D01*
X164539585Y-93773809D01*
X164344259Y-93793047D01*
X164151760Y-93831337D01*
X163963940Y-93888312D01*
X163782610Y-93963421D01*
X163609515Y-94055943D01*
X163446321Y-94164985D01*
X163294602Y-94289498D01*
X163155818Y-94428282D01*
X163031305Y-94580001D01*
X162922263Y-94743195D01*
X162829741Y-94916290D01*
X162754632Y-95097620D01*
X162697657Y-95285440D01*
X162659367Y-95477939D01*
X162640129Y-95673265D01*
X161761189Y-95673265D01*
X161761189Y-95630085D01*
X161788892Y-95348816D01*
X161844030Y-95071617D01*
X161926073Y-94801157D01*
X162034231Y-94540041D01*
X162167462Y-94290784D01*
X162324482Y-94055786D01*
X162503781Y-93837310D01*
X162703630Y-93637461D01*
X162922106Y-93458162D01*
X163157104Y-93301142D01*
X163406361Y-93167911D01*
X163667477Y-93059753D01*
X163937937Y-92977710D01*
X164215136Y-92922572D01*
X164496405Y-92894869D01*
X164779035Y-92894869D01*
X165060304Y-92922572D01*
G37*
%TD.AperFunction*%
D13*
%TO.P,U1,5*%
%TO.N,Net-(J4-Pad5)*%
X157537720Y-88671400D03*
%TA.AperFunction,SMDPad,CuDef*%
D14*
%TO.P,U1,3*%
%TO.N,Net-(J4-Pad3)*%
G36*
X157969304Y-85822572D02*
G01*
X158246503Y-85877710D01*
X158516963Y-85959753D01*
X158778079Y-86067911D01*
X159027336Y-86201142D01*
X159262334Y-86358162D01*
X159480810Y-86537461D01*
X159680659Y-86737310D01*
X159859958Y-86955786D01*
X160016978Y-87190784D01*
X160150209Y-87440041D01*
X160258367Y-87701157D01*
X160294842Y-87821400D01*
X161317720Y-87821400D01*
X161317720Y-89521400D01*
X160294842Y-89521400D01*
X160258367Y-89641643D01*
X160150209Y-89902759D01*
X160016978Y-90152016D01*
X159859958Y-90387014D01*
X159680659Y-90605490D01*
X159480810Y-90805339D01*
X159262334Y-90984638D01*
X159027336Y-91141658D01*
X158778079Y-91274889D01*
X158516963Y-91383047D01*
X158246503Y-91465090D01*
X157969304Y-91520228D01*
X157688035Y-91547931D01*
X157405405Y-91547931D01*
X157124136Y-91520228D01*
X156846937Y-91465090D01*
X156576477Y-91383047D01*
X156315361Y-91274889D01*
X156066104Y-91141658D01*
X155831106Y-90984638D01*
X155612630Y-90805339D01*
X155412781Y-90605490D01*
X155233482Y-90387014D01*
X155076462Y-90152016D01*
X154943231Y-89902759D01*
X154835073Y-89641643D01*
X154753030Y-89371183D01*
X154697892Y-89093984D01*
X154670189Y-88812715D01*
X154670189Y-88573265D01*
X155549129Y-88573265D01*
X155549129Y-88769535D01*
X155568367Y-88964861D01*
X155606657Y-89157360D01*
X155663632Y-89345180D01*
X155738741Y-89526510D01*
X155831263Y-89699605D01*
X155940305Y-89862799D01*
X156064818Y-90014518D01*
X156203602Y-90153302D01*
X156355321Y-90277815D01*
X156518515Y-90386857D01*
X156691610Y-90479379D01*
X156872940Y-90554488D01*
X157060760Y-90611463D01*
X157253259Y-90649753D01*
X157448585Y-90668991D01*
X157644855Y-90668991D01*
X157840181Y-90649753D01*
X158032680Y-90611463D01*
X158220500Y-90554488D01*
X158401830Y-90479379D01*
X158574925Y-90386857D01*
X158738119Y-90277815D01*
X158889838Y-90153302D01*
X159028622Y-90014518D01*
X159153135Y-89862799D01*
X159262177Y-89699605D01*
X159354699Y-89526510D01*
X159429808Y-89345180D01*
X159486783Y-89157360D01*
X159525073Y-88964861D01*
X159544311Y-88769535D01*
X159544311Y-88573265D01*
X159525073Y-88377939D01*
X159486783Y-88185440D01*
X159429808Y-87997620D01*
X159354699Y-87816290D01*
X159262177Y-87643195D01*
X159153135Y-87480001D01*
X159028622Y-87328282D01*
X158889838Y-87189498D01*
X158738119Y-87064985D01*
X158574925Y-86955943D01*
X158401830Y-86863421D01*
X158220500Y-86788312D01*
X158032680Y-86731337D01*
X157840181Y-86693047D01*
X157644855Y-86673809D01*
X157448585Y-86673809D01*
X157253259Y-86693047D01*
X157060760Y-86731337D01*
X156872940Y-86788312D01*
X156691610Y-86863421D01*
X156518515Y-86955943D01*
X156355321Y-87064985D01*
X156203602Y-87189498D01*
X156064818Y-87328282D01*
X155940305Y-87480001D01*
X155831263Y-87643195D01*
X155738741Y-87816290D01*
X155663632Y-87997620D01*
X155606657Y-88185440D01*
X155568367Y-88377939D01*
X155549129Y-88573265D01*
X154670189Y-88573265D01*
X154670189Y-88530085D01*
X154697892Y-88248816D01*
X154753030Y-87971617D01*
X154835073Y-87701157D01*
X154943231Y-87440041D01*
X155076462Y-87190784D01*
X155233482Y-86955786D01*
X155412781Y-86737310D01*
X155612630Y-86537461D01*
X155831106Y-86358162D01*
X156066104Y-86201142D01*
X156315361Y-86067911D01*
X156576477Y-85959753D01*
X156846937Y-85877710D01*
X157124136Y-85822572D01*
X157405405Y-85794869D01*
X157688035Y-85794869D01*
X157969304Y-85822572D01*
G37*
%TD.AperFunction*%
D13*
%TO.P,U1,5*%
%TO.N,Net-(J4-Pad5)*%
X171737720Y-88671400D03*
%TA.AperFunction,SMDPad,CuDef*%
D14*
%TO.P,U1,2*%
%TO.N,Net-(J4-Pad2)*%
G36*
X172169304Y-85822572D02*
G01*
X172446503Y-85877710D01*
X172716963Y-85959753D01*
X172978079Y-86067911D01*
X173227336Y-86201142D01*
X173462334Y-86358162D01*
X173680810Y-86537461D01*
X173880659Y-86737310D01*
X174059958Y-86955786D01*
X174216978Y-87190784D01*
X174350209Y-87440041D01*
X174458367Y-87701157D01*
X174494842Y-87821400D01*
X175517720Y-87821400D01*
X175517720Y-89521400D01*
X174494842Y-89521400D01*
X174458367Y-89641643D01*
X174350209Y-89902759D01*
X174216978Y-90152016D01*
X174059958Y-90387014D01*
X173880659Y-90605490D01*
X173680810Y-90805339D01*
X173462334Y-90984638D01*
X173227336Y-91141658D01*
X172978079Y-91274889D01*
X172716963Y-91383047D01*
X172446503Y-91465090D01*
X172169304Y-91520228D01*
X171888035Y-91547931D01*
X171605405Y-91547931D01*
X171324136Y-91520228D01*
X171046937Y-91465090D01*
X170776477Y-91383047D01*
X170515361Y-91274889D01*
X170266104Y-91141658D01*
X170031106Y-90984638D01*
X169812630Y-90805339D01*
X169612781Y-90605490D01*
X169433482Y-90387014D01*
X169276462Y-90152016D01*
X169143231Y-89902759D01*
X169035073Y-89641643D01*
X168953030Y-89371183D01*
X168897892Y-89093984D01*
X168870189Y-88812715D01*
X168870189Y-88573265D01*
X169749129Y-88573265D01*
X169749129Y-88769535D01*
X169768367Y-88964861D01*
X169806657Y-89157360D01*
X169863632Y-89345180D01*
X169938741Y-89526510D01*
X170031263Y-89699605D01*
X170140305Y-89862799D01*
X170264818Y-90014518D01*
X170403602Y-90153302D01*
X170555321Y-90277815D01*
X170718515Y-90386857D01*
X170891610Y-90479379D01*
X171072940Y-90554488D01*
X171260760Y-90611463D01*
X171453259Y-90649753D01*
X171648585Y-90668991D01*
X171844855Y-90668991D01*
X172040181Y-90649753D01*
X172232680Y-90611463D01*
X172420500Y-90554488D01*
X172601830Y-90479379D01*
X172774925Y-90386857D01*
X172938119Y-90277815D01*
X173089838Y-90153302D01*
X173228622Y-90014518D01*
X173353135Y-89862799D01*
X173462177Y-89699605D01*
X173554699Y-89526510D01*
X173629808Y-89345180D01*
X173686783Y-89157360D01*
X173725073Y-88964861D01*
X173744311Y-88769535D01*
X173744311Y-88573265D01*
X173725073Y-88377939D01*
X173686783Y-88185440D01*
X173629808Y-87997620D01*
X173554699Y-87816290D01*
X173462177Y-87643195D01*
X173353135Y-87480001D01*
X173228622Y-87328282D01*
X173089838Y-87189498D01*
X172938119Y-87064985D01*
X172774925Y-86955943D01*
X172601830Y-86863421D01*
X172420500Y-86788312D01*
X172232680Y-86731337D01*
X172040181Y-86693047D01*
X171844855Y-86673809D01*
X171648585Y-86673809D01*
X171453259Y-86693047D01*
X171260760Y-86731337D01*
X171072940Y-86788312D01*
X170891610Y-86863421D01*
X170718515Y-86955943D01*
X170555321Y-87064985D01*
X170403602Y-87189498D01*
X170264818Y-87328282D01*
X170140305Y-87480001D01*
X170031263Y-87643195D01*
X169938741Y-87816290D01*
X169863632Y-87997620D01*
X169806657Y-88185440D01*
X169768367Y-88377939D01*
X169749129Y-88573265D01*
X168870189Y-88573265D01*
X168870189Y-88530085D01*
X168897892Y-88248816D01*
X168953030Y-87971617D01*
X169035073Y-87701157D01*
X169143231Y-87440041D01*
X169276462Y-87190784D01*
X169433482Y-86955786D01*
X169612781Y-86737310D01*
X169812630Y-86537461D01*
X170031106Y-86358162D01*
X170266104Y-86201142D01*
X170515361Y-86067911D01*
X170776477Y-85959753D01*
X171046937Y-85877710D01*
X171324136Y-85822572D01*
X171605405Y-85794869D01*
X171888035Y-85794869D01*
X172169304Y-85822572D01*
G37*
%TD.AperFunction*%
%TD*%
D15*
%TO.P,SW4,4*%
%TO.N,Net-(SW4-Pad4)*%
X177172760Y-128274200D03*
%TO.P,SW4,3*%
%TO.N,Net-(J5-Pad3)*%
X170672760Y-128274200D03*
%TO.P,SW4,2*%
%TO.N,Net-(J5-Pad5)*%
X177172760Y-123774200D03*
%TO.P,SW4,1*%
%TO.N,Net-(SW4-Pad1)*%
X170672760Y-123774200D03*
%TD*%
%TO.P,SW3,1*%
%TO.N,Net-(SW3-Pad1)*%
X178104800Y-116199920D03*
%TO.P,SW3,2*%
%TO.N,Net-(J5-Pad5)*%
X184604800Y-116199920D03*
%TO.P,SW3,3*%
%TO.N,Net-(J5-Pad4)*%
X178104800Y-120699920D03*
%TO.P,SW3,4*%
%TO.N,Net-(SW3-Pad4)*%
X184604800Y-120699920D03*
%TD*%
%TO.P,SW2,4*%
%TO.N,Net-(SW2-Pad4)*%
X177121960Y-113095160D03*
%TO.P,SW2,3*%
%TO.N,Net-(J5-Pad1)*%
X170621960Y-113095160D03*
%TO.P,SW2,2*%
%TO.N,Net-(J5-Pad5)*%
X177121960Y-108595160D03*
%TO.P,SW2,1*%
%TO.N,Net-(SW2-Pad1)*%
X170621960Y-108595160D03*
%TD*%
%TO.P,SW1,1*%
%TO.N,Net-(SW1-Pad1)*%
X169585640Y-120685560D03*
%TO.P,SW1,2*%
%TO.N,Net-(J5-Pad5)*%
X163085640Y-120685560D03*
%TO.P,SW1,3*%
%TO.N,Net-(J5-Pad2)*%
X169585640Y-116185560D03*
%TO.P,SW1,4*%
%TO.N,Net-(SW1-Pad4)*%
X163085640Y-116185560D03*
%TD*%
D16*
%TO.P,J5,5*%
%TO.N,Net-(J5-Pad5)*%
X157652720Y-123667520D03*
%TO.P,J5,4*%
%TO.N,Net-(J5-Pad4)*%
X157652720Y-121127520D03*
%TO.P,J5,3*%
%TO.N,Net-(J5-Pad3)*%
X157652720Y-118587520D03*
%TO.P,J5,2*%
%TO.N,Net-(J5-Pad2)*%
X157652720Y-116047520D03*
D17*
%TO.P,J5,1*%
%TO.N,Net-(J5-Pad1)*%
X157652720Y-113507520D03*
%TD*%
D16*
%TO.P,J4,5*%
%TO.N,Net-(J4-Pad5)*%
X182595520Y-95031560D03*
%TO.P,J4,4*%
%TO.N,Net-(J4-Pad4)*%
X182595520Y-92491560D03*
%TO.P,J4,3*%
%TO.N,Net-(J4-Pad3)*%
X182595520Y-89951560D03*
%TO.P,J4,2*%
%TO.N,Net-(J4-Pad2)*%
X182595520Y-87411560D03*
D17*
%TO.P,J4,1*%
%TO.N,Net-(J4-Pad1)*%
X182595520Y-84871560D03*
%TD*%
D18*
%TO.P,Y1,2*%
%TO.N,Net-(IC1-Pad2)*%
X132816600Y-100892000D03*
%TO.P,Y1,1*%
%TO.N,Net-(IC1-Pad3)*%
X132816600Y-96012000D03*
%TD*%
%TO.P,R1,2*%
%TO.N,GND*%
%TA.AperFunction,SMDPad,CuDef*%
G36*
G01*
X147457840Y-93756160D02*
X146907840Y-93756160D01*
G75*
G02*
X146707840Y-93556160I0J200000D01*
G01*
X146707840Y-93156160D01*
G75*
G02*
X146907840Y-92956160I200000J0D01*
G01*
X147457840Y-92956160D01*
G75*
G02*
X147657840Y-93156160I0J-200000D01*
G01*
X147657840Y-93556160D01*
G75*
G02*
X147457840Y-93756160I-200000J0D01*
G01*
G37*
%TD.AperFunction*%
%TO.P,R1,1*%
%TO.N,Net-(IC1-Pad14)*%
%TA.AperFunction,SMDPad,CuDef*%
G36*
G01*
X147457840Y-95406160D02*
X146907840Y-95406160D01*
G75*
G02*
X146707840Y-95206160I0J200000D01*
G01*
X146707840Y-94806160D01*
G75*
G02*
X146907840Y-94606160I200000J0D01*
G01*
X147457840Y-94606160D01*
G75*
G02*
X147657840Y-94806160I0J-200000D01*
G01*
X147657840Y-95206160D01*
G75*
G02*
X147457840Y-95406160I-200000J0D01*
G01*
G37*
%TD.AperFunction*%
%TD*%
D19*
%TO.P,J3,1*%
%TO.N,GND*%
X135957720Y-85880120D03*
%TO.P,J3,2*%
%TO.N,Net-(IC1-Pad16)*%
X138457720Y-85880120D03*
%TO.P,J3,3*%
%TO.N,Net-(IC1-Pad15)*%
X140457720Y-85880120D03*
%TO.P,J3,4*%
%TO.N,+5V*%
X142957720Y-85880120D03*
D20*
%TO.P,J3,MH1*%
%TO.N,Net-(J3-PadMH1)*%
X132887720Y-88590120D03*
%TO.P,J3,MH2*%
%TO.N,Net-(J3-PadMH2)*%
X146027720Y-88590120D03*
%TD*%
D19*
%TO.P,J2,1*%
%TO.N,GND*%
X142788640Y-118022760D03*
%TO.P,J2,2*%
%TO.N,Net-(IC1-Pad9)*%
X142788640Y-115522760D03*
%TO.P,J2,3*%
%TO.N,Net-(IC1-Pad8)*%
X142788640Y-113522760D03*
%TO.P,J2,4*%
%TO.N,+5V*%
X142788640Y-111022760D03*
D20*
%TO.P,J2,MH1*%
%TO.N,Net-(J2-PadMH1)*%
X145498640Y-121092760D03*
%TO.P,J2,MH2*%
%TO.N,Net-(J2-PadMH2)*%
X145498640Y-107952760D03*
%TD*%
D19*
%TO.P,J1,1*%
%TO.N,GND*%
X132689600Y-118043960D03*
%TO.P,J1,2*%
%TO.N,Net-(IC1-Pad5)*%
X132689600Y-115543960D03*
%TO.P,J1,3*%
%TO.N,Net-(IC1-Pad4)*%
X132689600Y-113543960D03*
%TO.P,J1,4*%
%TO.N,+5V*%
X132689600Y-111043960D03*
D20*
%TO.P,J1,MH1*%
%TO.N,Net-(J1-PadMH1)*%
X135399600Y-121113960D03*
%TO.P,J1,MH2*%
%TO.N,Net-(J1-PadMH2)*%
X135399600Y-107973960D03*
%TD*%
D21*
%TO.P,IC1,28*%
%TO.N,/vd18*%
X138542280Y-97968520D03*
%TO.P,IC1,27*%
%TO.N,Net-(IC1-Pad27)*%
X139182280Y-97968520D03*
%TO.P,IC1,26*%
%TO.N,/vd33*%
X139822280Y-97968520D03*
%TO.P,IC1,25*%
%TO.N,Net-(IC1-Pad25)*%
X140462280Y-97968520D03*
%TO.P,IC1,24*%
%TO.N,Net-(IC1-Pad24)*%
X141102280Y-97968520D03*
%TO.P,IC1,23*%
%TO.N,Net-(IC1-Pad23)*%
X141742280Y-97968520D03*
%TO.P,IC1,22*%
%TO.N,Net-(IC1-Pad22)*%
X142382280Y-97968520D03*
%TO.P,IC1,21*%
%TO.N,/vd33*%
X143022280Y-97968520D03*
%TO.P,IC1,20*%
%TO.N,+5V*%
X143662280Y-97968520D03*
%TO.P,IC1,19*%
%TO.N,Net-(IC1-Pad19)*%
X144302280Y-97968520D03*
%TO.P,IC1,18*%
%TO.N,Net-(IC1-Pad18)*%
X144942280Y-97968520D03*
%TO.P,IC1,17*%
%TO.N,Net-(IC1-Pad17)*%
X145582280Y-97968520D03*
%TO.P,IC1,16*%
%TO.N,Net-(IC1-Pad16)*%
X146222280Y-97968520D03*
%TO.P,IC1,15*%
%TO.N,Net-(IC1-Pad15)*%
X146862280Y-97968520D03*
%TO.P,IC1,14*%
%TO.N,Net-(IC1-Pad14)*%
X146862280Y-103392520D03*
%TO.P,IC1,13*%
%TO.N,/vd33*%
X146222280Y-103392520D03*
%TO.P,IC1,12*%
%TO.N,/vd18*%
X145582280Y-103392520D03*
%TO.P,IC1,11*%
%TO.N,Net-(IC1-Pad11)*%
X144942280Y-103392520D03*
%TO.P,IC1,10*%
%TO.N,Net-(IC1-Pad10)*%
X144302280Y-103392520D03*
%TO.P,IC1,9*%
%TO.N,Net-(IC1-Pad9)*%
X143662280Y-103392520D03*
%TO.P,IC1,8*%
%TO.N,Net-(IC1-Pad8)*%
X143022280Y-103392520D03*
%TO.P,IC1,7*%
%TO.N,Net-(IC1-Pad7)*%
X142382280Y-103392520D03*
%TO.P,IC1,6*%
%TO.N,Net-(IC1-Pad6)*%
X141742280Y-103392520D03*
%TO.P,IC1,5*%
%TO.N,Net-(IC1-Pad5)*%
X141102280Y-103392520D03*
%TO.P,IC1,4*%
%TO.N,Net-(IC1-Pad4)*%
X140462280Y-103392520D03*
%TO.P,IC1,3*%
%TO.N,Net-(IC1-Pad3)*%
X139822280Y-103392520D03*
%TO.P,IC1,2*%
%TO.N,Net-(IC1-Pad2)*%
X139182280Y-103392520D03*
%TO.P,IC1,1*%
%TO.N,GND*%
X138542280Y-103392520D03*
%TD*%
%TO.P,C3,2*%
%TO.N,GND*%
%TA.AperFunction,SMDPad,CuDef*%
G36*
G01*
X143417480Y-94498040D02*
X143917480Y-94498040D01*
G75*
G02*
X144142480Y-94723040I0J-225000D01*
G01*
X144142480Y-95173040D01*
G75*
G02*
X143917480Y-95398040I-225000J0D01*
G01*
X143417480Y-95398040D01*
G75*
G02*
X143192480Y-95173040I0J225000D01*
G01*
X143192480Y-94723040D01*
G75*
G02*
X143417480Y-94498040I225000J0D01*
G01*
G37*
%TD.AperFunction*%
%TO.P,C3,1*%
%TO.N,+5V*%
%TA.AperFunction,SMDPad,CuDef*%
G36*
G01*
X143417480Y-92948040D02*
X143917480Y-92948040D01*
G75*
G02*
X144142480Y-93173040I0J-225000D01*
G01*
X144142480Y-93623040D01*
G75*
G02*
X143917480Y-93848040I-225000J0D01*
G01*
X143417480Y-93848040D01*
G75*
G02*
X143192480Y-93623040I0J225000D01*
G01*
X143192480Y-93173040D01*
G75*
G02*
X143417480Y-92948040I225000J0D01*
G01*
G37*
%TD.AperFunction*%
%TD*%
%TO.P,C2,2*%
%TO.N,GND*%
%TA.AperFunction,SMDPad,CuDef*%
G36*
G01*
X141204760Y-93870600D02*
X140704760Y-93870600D01*
G75*
G02*
X140479760Y-93645600I0J225000D01*
G01*
X140479760Y-93195600D01*
G75*
G02*
X140704760Y-92970600I225000J0D01*
G01*
X141204760Y-92970600D01*
G75*
G02*
X141429760Y-93195600I0J-225000D01*
G01*
X141429760Y-93645600D01*
G75*
G02*
X141204760Y-93870600I-225000J0D01*
G01*
G37*
%TD.AperFunction*%
%TO.P,C2,1*%
%TO.N,/vd33*%
%TA.AperFunction,SMDPad,CuDef*%
G36*
G01*
X141204760Y-95420600D02*
X140704760Y-95420600D01*
G75*
G02*
X140479760Y-95195600I0J225000D01*
G01*
X140479760Y-94745600D01*
G75*
G02*
X140704760Y-94520600I225000J0D01*
G01*
X141204760Y-94520600D01*
G75*
G02*
X141429760Y-94745600I0J-225000D01*
G01*
X141429760Y-95195600D01*
G75*
G02*
X141204760Y-95420600I-225000J0D01*
G01*
G37*
%TD.AperFunction*%
%TD*%
%TO.P,C1,2*%
%TO.N,GND*%
%TA.AperFunction,SMDPad,CuDef*%
G36*
G01*
X137968800Y-93885840D02*
X137468800Y-93885840D01*
G75*
G02*
X137243800Y-93660840I0J225000D01*
G01*
X137243800Y-93210840D01*
G75*
G02*
X137468800Y-92985840I225000J0D01*
G01*
X137968800Y-92985840D01*
G75*
G02*
X138193800Y-93210840I0J-225000D01*
G01*
X138193800Y-93660840D01*
G75*
G02*
X137968800Y-93885840I-225000J0D01*
G01*
G37*
%TD.AperFunction*%
%TO.P,C1,1*%
%TO.N,/vd18*%
%TA.AperFunction,SMDPad,CuDef*%
G36*
G01*
X137968800Y-95435840D02*
X137468800Y-95435840D01*
G75*
G02*
X137243800Y-95210840I0J225000D01*
G01*
X137243800Y-94760840D01*
G75*
G02*
X137468800Y-94535840I225000J0D01*
G01*
X137968800Y-94535840D01*
G75*
G02*
X138193800Y-94760840I0J-225000D01*
G01*
X138193800Y-95210840D01*
G75*
G02*
X137968800Y-95435840I-225000J0D01*
G01*
G37*
%TD.AperFunction*%
%TD*%
D22*
%TO.N,Net-(J4-Pad5)*%
X175148240Y-97627440D03*
%TD*%
D23*
%TO.N,GND*%
X138542280Y-103392520D02*
X132003080Y-103392520D01*
X132003080Y-103392520D02*
X130561080Y-101950520D01*
X130561080Y-101950520D02*
X130561080Y-95031560D01*
X132156800Y-93435840D02*
X137718800Y-93435840D01*
X130561080Y-95031560D02*
X132156800Y-93435840D01*
%TO.N,/vd18*%
X138542280Y-98981020D02*
X141013940Y-101452680D01*
X138542280Y-97968520D02*
X138542280Y-98981020D01*
X145582280Y-102465018D02*
X145582280Y-103392520D01*
X144569942Y-101452680D02*
X145582280Y-102465018D01*
X141013940Y-101452680D02*
X144569942Y-101452680D01*
X138542280Y-95809320D02*
X137718800Y-94985840D01*
X138542280Y-97968520D02*
X138542280Y-95809320D01*
%TO.N,/vd33*%
X139822280Y-96103080D02*
X140954760Y-94970600D01*
X139822280Y-97968520D02*
X139822280Y-96103080D01*
X146222280Y-102181020D02*
X146222280Y-103392520D01*
X143022280Y-97968520D02*
X143022280Y-98981020D01*
X139822280Y-98981020D02*
X140627700Y-99786440D01*
X139822280Y-97968520D02*
X139822280Y-98981020D01*
X142321860Y-99786440D02*
X142978550Y-99129750D01*
X142978550Y-99129750D02*
X143171010Y-99129750D01*
X140627700Y-99786440D02*
X142321860Y-99786440D01*
X143171010Y-99129750D02*
X146222280Y-102181020D01*
X143022280Y-98981020D02*
X143171010Y-99129750D01*
D24*
%TO.N,+5V*%
X138662518Y-84038440D02*
X141116040Y-84038440D01*
X141116040Y-84038440D02*
X142957720Y-85880120D01*
X137205720Y-85495238D02*
X138662518Y-84038440D01*
X143667480Y-93398040D02*
X143667480Y-93162120D01*
X137205720Y-86700360D02*
X137205720Y-85495238D01*
X143667480Y-93162120D02*
X137205720Y-86700360D01*
X143662280Y-96923118D02*
X144790160Y-95795238D01*
X143662280Y-97968520D02*
X143662280Y-96923118D01*
X144790160Y-95795238D02*
X144790160Y-94300040D01*
X143888160Y-93398040D02*
X143667480Y-93398040D01*
X144790160Y-94300040D02*
X143888160Y-93398040D01*
D23*
%TO.N,Net-(IC1-Pad16)*%
X138457720Y-85880120D02*
X138457720Y-86113400D01*
X138457720Y-86113400D02*
X145506440Y-93162120D01*
X146222280Y-97041018D02*
X146222280Y-97968520D01*
X145506440Y-96325178D02*
X146222280Y-97041018D01*
X145506440Y-93162120D02*
X145506440Y-96325178D01*
%TO.N,Net-(IC1-Pad15)*%
X140457720Y-85880120D02*
X140457720Y-87320920D01*
X140457720Y-87320920D02*
X145994120Y-92857320D01*
X146862280Y-96956020D02*
X146862280Y-97968520D01*
X145994120Y-96087860D02*
X146862280Y-96956020D01*
X145994120Y-92857320D02*
X145994120Y-96087860D01*
%TO.N,Net-(IC1-Pad14)*%
X146862280Y-103392520D02*
X147742360Y-103392520D01*
X147742360Y-103392520D02*
X148523960Y-102610920D01*
X148523960Y-96347280D02*
X147182840Y-95006160D01*
X148523960Y-102610920D02*
X148523960Y-96347280D01*
%TO.N,Net-(IC1-Pad9)*%
X143662280Y-104871640D02*
X143662280Y-103392520D01*
X142814040Y-105719880D02*
X143662280Y-104871640D01*
X142814040Y-105719880D02*
X142814040Y-109103160D01*
X142814040Y-109103160D02*
X144531080Y-110820200D01*
X144531080Y-113780320D02*
X142788640Y-115522760D01*
X144531080Y-110820200D02*
X144531080Y-113780320D01*
%TO.N,Net-(IC1-Pad8)*%
X143022280Y-104320022D02*
X143022280Y-103392520D01*
X142199360Y-105142942D02*
X143022280Y-104320022D01*
X142199360Y-105142942D02*
X142199360Y-108681520D01*
X142199360Y-108681520D02*
X141000480Y-109880400D01*
X141000480Y-111734600D02*
X142788640Y-113522760D01*
X141000480Y-109880400D02*
X141000480Y-111734600D01*
%TO.N,Net-(IC1-Pad5)*%
X141102280Y-107131280D02*
X132689600Y-115543960D01*
X141102280Y-103392520D02*
X141102280Y-107131280D01*
%TO.N,Net-(IC1-Pad4)*%
X140462280Y-106554549D02*
X140462280Y-103392520D01*
X133472869Y-113543960D02*
X132689600Y-113543960D01*
X140462280Y-106554549D02*
X133472869Y-113543960D01*
%TO.N,Net-(IC1-Pad3)*%
X132816600Y-96012000D02*
X132816600Y-98455480D01*
X132816600Y-98455480D02*
X134803110Y-100441990D01*
X139822280Y-102468608D02*
X139822280Y-103392520D01*
X137795663Y-100441991D02*
X139822280Y-102468608D01*
X134803110Y-100441990D02*
X137795663Y-100441991D01*
%TO.N,Net-(IC1-Pad2)*%
X139182280Y-102465018D02*
X139182280Y-103392520D01*
X137609262Y-100892000D02*
X139182280Y-102465018D01*
X132816600Y-100892000D02*
X137609262Y-100892000D01*
%TO.N,Net-(J4-Pad5)*%
X175148240Y-97627440D02*
X175051720Y-97627440D01*
X175148240Y-97627440D02*
X176255680Y-97627440D01*
X178851560Y-95031560D02*
X182595520Y-95031560D01*
X176255680Y-97627440D02*
X178851560Y-95031560D01*
%TO.N,Net-(J4-Pad4)*%
X178937920Y-92491560D02*
X182595520Y-92491560D01*
X175658080Y-95771400D02*
X178937920Y-92491560D01*
X167558720Y-95771400D02*
X175658080Y-95771400D01*
%TO.N,Net-(J4-Pad3)*%
X175585120Y-93207840D02*
X178841400Y-89951560D01*
X169814240Y-93207840D02*
X175585120Y-93207840D01*
X165277800Y-88671400D02*
X169814240Y-93207840D01*
X178841400Y-89951560D02*
X182595520Y-89951560D01*
X160467720Y-88671400D02*
X165277800Y-88671400D01*
%TO.N,Net-(J4-Pad2)*%
X182559960Y-87376000D02*
X182595520Y-87411560D01*
X174667720Y-88671400D02*
X176733200Y-88671400D01*
X177993040Y-87411560D02*
X182595520Y-87411560D01*
X176733200Y-88671400D02*
X177993040Y-87411560D01*
%TO.N,Net-(J4-Pad1)*%
X175488600Y-84871560D02*
X172188440Y-81571400D01*
X182595520Y-84871560D02*
X175488600Y-84871560D01*
X172188440Y-81571400D02*
X167558720Y-81571400D01*
%TO.N,Net-(J5-Pad5)*%
X162618280Y-120218200D02*
X163085640Y-120685560D01*
X163085640Y-120685560D02*
X168252000Y-125851920D01*
X174968040Y-125851920D02*
X177182920Y-123637040D01*
X168252000Y-125851920D02*
X174968040Y-125851920D01*
X184604800Y-116215160D02*
X184604800Y-116199920D01*
X177182920Y-123637040D02*
X184604800Y-116215160D01*
X177218480Y-108813600D02*
X177218480Y-108579920D01*
X184604800Y-116199920D02*
X177218480Y-108813600D01*
X160103680Y-123667520D02*
X163085640Y-120685560D01*
X157652720Y-123667520D02*
X160103680Y-123667520D01*
%TO.N,Net-(J5-Pad4)*%
X159913320Y-118866920D02*
X157652720Y-121127520D01*
X163586160Y-118866920D02*
X159913320Y-118866920D01*
X166579801Y-121860561D02*
X163586160Y-118866920D01*
X176944159Y-121860561D02*
X166579801Y-121860561D01*
X178104800Y-120699920D02*
X176944159Y-121860561D01*
%TO.N,Net-(J5-Pad3)*%
X170682920Y-128137040D02*
X163700478Y-128137040D01*
X157652720Y-118587520D02*
X155986480Y-118587520D01*
X155986480Y-118587520D02*
X154879040Y-119694960D01*
X160383238Y-128137040D02*
X163700478Y-128137040D01*
X154879040Y-122632842D02*
X160383238Y-128137040D01*
X154879040Y-119694960D02*
X154879040Y-122632842D01*
%TO.N,Net-(J5-Pad2)*%
X165998280Y-112598200D02*
X169585640Y-116185560D01*
X157652720Y-116047520D02*
X159252920Y-116047520D01*
X162702240Y-112598200D02*
X165998280Y-112598200D01*
X159252920Y-116047520D02*
X162702240Y-112598200D01*
%TO.N,Net-(J5-Pad1)*%
X167696760Y-110058200D02*
X170718480Y-113079920D01*
X157652720Y-113507520D02*
X159273240Y-113507520D01*
X162722560Y-110058200D02*
X167696760Y-110058200D01*
X159273240Y-113507520D02*
X162722560Y-110058200D01*
%TD*%
D25*
%TO.N,GND*%
X149346920Y-88589799D02*
X149294163Y-88668755D01*
X149227450Y-88829815D01*
X149193440Y-89000795D01*
X149193440Y-89175125D01*
X149227450Y-89346105D01*
X149294163Y-89507165D01*
X149346920Y-89586121D01*
X149346920Y-89656599D01*
X149294163Y-89735555D01*
X149227450Y-89896615D01*
X149193440Y-90067595D01*
X149193440Y-90241925D01*
X149227450Y-90412905D01*
X149294163Y-90573965D01*
X149346920Y-90652921D01*
X149346920Y-90659985D01*
X149268763Y-90776955D01*
X149202050Y-90938015D01*
X149168040Y-91108995D01*
X149168040Y-91283325D01*
X149202050Y-91454305D01*
X149268763Y-91615365D01*
X149346920Y-91732335D01*
X149346920Y-116533301D01*
X149274176Y-116606045D01*
X149177323Y-116750995D01*
X149110610Y-116912055D01*
X149076600Y-117083035D01*
X149076600Y-117257365D01*
X149110610Y-117428345D01*
X149177323Y-117589405D01*
X149253626Y-117703600D01*
X149177323Y-117817795D01*
X149110610Y-117978855D01*
X149076600Y-118149835D01*
X149076600Y-118324165D01*
X149110610Y-118495145D01*
X149177323Y-118656205D01*
X149232440Y-118738693D01*
X149151923Y-118859195D01*
X149085210Y-119020255D01*
X149051200Y-119191235D01*
X149051200Y-119365565D01*
X149085210Y-119536545D01*
X149151923Y-119697605D01*
X149248776Y-119842555D01*
X149346920Y-119940699D01*
X149346920Y-124256800D01*
X128915160Y-124256800D01*
X128915160Y-120879304D01*
X133017100Y-120879304D01*
X133017100Y-121348616D01*
X133108658Y-121808910D01*
X133288256Y-122242497D01*
X133548991Y-122632715D01*
X133880845Y-122964569D01*
X134271063Y-123225304D01*
X134704650Y-123404902D01*
X135164944Y-123496460D01*
X135634256Y-123496460D01*
X136094550Y-123404902D01*
X136528137Y-123225304D01*
X136918355Y-122964569D01*
X137250209Y-122632715D01*
X137510944Y-122242497D01*
X137690542Y-121808910D01*
X137782100Y-121348616D01*
X137782100Y-120879304D01*
X137777884Y-120858104D01*
X143116140Y-120858104D01*
X143116140Y-121327416D01*
X143207698Y-121787710D01*
X143387296Y-122221297D01*
X143648031Y-122611515D01*
X143979885Y-122943369D01*
X144370103Y-123204104D01*
X144803690Y-123383702D01*
X145263984Y-123475260D01*
X145733296Y-123475260D01*
X146193590Y-123383702D01*
X146627177Y-123204104D01*
X147017395Y-122943369D01*
X147349249Y-122611515D01*
X147609984Y-122221297D01*
X147789582Y-121787710D01*
X147881140Y-121327416D01*
X147881140Y-120858104D01*
X147789582Y-120397810D01*
X147609984Y-119964223D01*
X147349249Y-119574005D01*
X147017395Y-119242151D01*
X146627177Y-118981416D01*
X146193590Y-118801818D01*
X145733296Y-118710260D01*
X145263984Y-118710260D01*
X144803690Y-118801818D01*
X144370103Y-118981416D01*
X143979885Y-119242151D01*
X143648031Y-119574005D01*
X143387296Y-119964223D01*
X143207698Y-120397810D01*
X143116140Y-120858104D01*
X137777884Y-120858104D01*
X137690542Y-120419010D01*
X137510944Y-119985423D01*
X137250209Y-119595205D01*
X136918355Y-119263351D01*
X136528137Y-119002616D01*
X136413436Y-118955105D01*
X142035900Y-118955105D01*
X142097242Y-119190454D01*
X142338332Y-119302903D01*
X142596728Y-119366155D01*
X142862499Y-119377782D01*
X143125432Y-119337337D01*
X143375422Y-119246372D01*
X143480038Y-119190454D01*
X143541380Y-118955105D01*
X142788640Y-118202365D01*
X142035900Y-118955105D01*
X136413436Y-118955105D01*
X136094550Y-118823018D01*
X135634256Y-118731460D01*
X135164944Y-118731460D01*
X134704650Y-118823018D01*
X134271063Y-119002616D01*
X133880845Y-119263351D01*
X133548991Y-119595205D01*
X133288256Y-119985423D01*
X133108658Y-120419010D01*
X133017100Y-120879304D01*
X128915160Y-120879304D01*
X128915160Y-118976305D01*
X131936860Y-118976305D01*
X131998202Y-119211654D01*
X132239292Y-119324103D01*
X132497688Y-119387355D01*
X132763459Y-119398982D01*
X133026392Y-119358537D01*
X133276382Y-119267572D01*
X133380998Y-119211654D01*
X133442340Y-118976305D01*
X132689600Y-118223565D01*
X131936860Y-118976305D01*
X128915160Y-118976305D01*
X128915160Y-118117819D01*
X131334578Y-118117819D01*
X131375023Y-118380752D01*
X131465988Y-118630742D01*
X131521906Y-118735358D01*
X131757255Y-118796700D01*
X132509995Y-118043960D01*
X132869205Y-118043960D01*
X133621945Y-118796700D01*
X133857294Y-118735358D01*
X133969743Y-118494268D01*
X134032995Y-118235872D01*
X134039087Y-118096619D01*
X141433618Y-118096619D01*
X141474063Y-118359552D01*
X141565028Y-118609542D01*
X141620946Y-118714158D01*
X141856295Y-118775500D01*
X142609035Y-118022760D01*
X142968245Y-118022760D01*
X143720985Y-118775500D01*
X143956334Y-118714158D01*
X144068783Y-118473068D01*
X144132035Y-118214672D01*
X144143662Y-117948901D01*
X144103217Y-117685968D01*
X144012252Y-117435978D01*
X143956334Y-117331362D01*
X143720985Y-117270020D01*
X142968245Y-118022760D01*
X142609035Y-118022760D01*
X141856295Y-117270020D01*
X141620946Y-117331362D01*
X141508497Y-117572452D01*
X141445245Y-117830848D01*
X141433618Y-118096619D01*
X134039087Y-118096619D01*
X134044622Y-117970101D01*
X134004177Y-117707168D01*
X133913212Y-117457178D01*
X133857294Y-117352562D01*
X133621945Y-117291220D01*
X132869205Y-118043960D01*
X132509995Y-118043960D01*
X131757255Y-117291220D01*
X131521906Y-117352562D01*
X131409457Y-117593652D01*
X131346205Y-117852048D01*
X131334578Y-118117819D01*
X128915160Y-118117819D01*
X128915160Y-110910947D01*
X131339100Y-110910947D01*
X131339100Y-111176973D01*
X131390999Y-111437886D01*
X131492803Y-111683661D01*
X131640599Y-111904853D01*
X131828707Y-112092961D01*
X132049899Y-112240757D01*
X132178342Y-112293960D01*
X132049899Y-112347163D01*
X131828707Y-112494959D01*
X131640599Y-112683067D01*
X131492803Y-112904259D01*
X131390999Y-113150034D01*
X131339100Y-113410947D01*
X131339100Y-113676973D01*
X131390999Y-113937886D01*
X131492803Y-114183661D01*
X131640599Y-114404853D01*
X131779706Y-114543960D01*
X131640599Y-114683067D01*
X131492803Y-114904259D01*
X131390999Y-115150034D01*
X131339100Y-115410947D01*
X131339100Y-115676973D01*
X131390999Y-115937886D01*
X131492803Y-116183661D01*
X131640599Y-116404853D01*
X131828707Y-116592961D01*
X132049899Y-116740757D01*
X132176937Y-116793378D01*
X132102818Y-116820348D01*
X131998202Y-116876266D01*
X131936860Y-117111615D01*
X132689600Y-117864355D01*
X133442340Y-117111615D01*
X133380998Y-116876266D01*
X133202805Y-116793154D01*
X133329301Y-116740757D01*
X133550493Y-116592961D01*
X133738601Y-116404853D01*
X133886397Y-116183661D01*
X133988201Y-115937886D01*
X134040100Y-115676973D01*
X134040100Y-115410947D01*
X134016427Y-115291934D01*
X141439361Y-107869001D01*
X141439361Y-108366717D01*
X140489483Y-109316596D01*
X140460479Y-109340399D01*
X140415336Y-109395407D01*
X140365506Y-109456124D01*
X140345948Y-109492715D01*
X140294934Y-109588154D01*
X140251477Y-109731415D01*
X140240480Y-109843068D01*
X140240480Y-109843078D01*
X140236804Y-109880400D01*
X140240480Y-109917723D01*
X140240481Y-111697268D01*
X140236804Y-111734600D01*
X140240481Y-111771933D01*
X140251478Y-111883586D01*
X140257929Y-111904853D01*
X140294934Y-112026846D01*
X140365506Y-112158876D01*
X140419083Y-112224159D01*
X140460480Y-112274601D01*
X140489478Y-112298399D01*
X141461813Y-113270735D01*
X141438140Y-113389747D01*
X141438140Y-113655773D01*
X141490039Y-113916686D01*
X141591843Y-114162461D01*
X141739639Y-114383653D01*
X141878746Y-114522760D01*
X141739639Y-114661867D01*
X141591843Y-114883059D01*
X141490039Y-115128834D01*
X141438140Y-115389747D01*
X141438140Y-115655773D01*
X141490039Y-115916686D01*
X141591843Y-116162461D01*
X141739639Y-116383653D01*
X141927747Y-116571761D01*
X142148939Y-116719557D01*
X142275977Y-116772178D01*
X142201858Y-116799148D01*
X142097242Y-116855066D01*
X142035900Y-117090415D01*
X142788640Y-117843155D01*
X143541380Y-117090415D01*
X143480038Y-116855066D01*
X143301845Y-116771954D01*
X143428341Y-116719557D01*
X143649533Y-116571761D01*
X143837641Y-116383653D01*
X143985437Y-116162461D01*
X144087241Y-115916686D01*
X144139140Y-115655773D01*
X144139140Y-115389747D01*
X144115467Y-115270735D01*
X145042083Y-114344119D01*
X145071081Y-114320321D01*
X145166054Y-114204596D01*
X145236626Y-114072567D01*
X145280083Y-113929306D01*
X145291080Y-113817653D01*
X145291080Y-113817644D01*
X145294756Y-113780321D01*
X145291080Y-113742998D01*
X145291080Y-110857522D01*
X145294756Y-110820199D01*
X145291080Y-110782876D01*
X145291080Y-110782867D01*
X145280083Y-110671214D01*
X145236626Y-110527953D01*
X145166054Y-110395924D01*
X145087451Y-110300145D01*
X145263984Y-110335260D01*
X145733296Y-110335260D01*
X146193590Y-110243702D01*
X146627177Y-110064104D01*
X147017395Y-109803369D01*
X147349249Y-109471515D01*
X147609984Y-109081297D01*
X147789582Y-108647710D01*
X147881140Y-108187416D01*
X147881140Y-107718104D01*
X147789582Y-107257810D01*
X147609984Y-106824223D01*
X147349249Y-106434005D01*
X147017395Y-106102151D01*
X146627177Y-105841416D01*
X146193590Y-105661818D01*
X145733296Y-105570260D01*
X145263984Y-105570260D01*
X144803690Y-105661818D01*
X144370103Y-105841416D01*
X143979885Y-106102151D01*
X143648031Y-106434005D01*
X143574040Y-106544740D01*
X143574040Y-106034681D01*
X144173284Y-105435438D01*
X144202281Y-105411641D01*
X144297254Y-105295916D01*
X144367826Y-105163887D01*
X144411283Y-105020626D01*
X144422280Y-104908973D01*
X144422280Y-104908972D01*
X144425957Y-104871640D01*
X144422280Y-104834307D01*
X144422280Y-104793092D01*
X144522280Y-104793092D01*
X144622280Y-104783243D01*
X144722280Y-104793092D01*
X145162280Y-104793092D01*
X145262280Y-104783243D01*
X145362280Y-104793092D01*
X145802280Y-104793092D01*
X145902280Y-104783243D01*
X146002280Y-104793092D01*
X146442280Y-104793092D01*
X146542280Y-104783243D01*
X146642280Y-104793092D01*
X147082280Y-104793092D01*
X147206762Y-104780832D01*
X147326460Y-104744522D01*
X147436774Y-104685557D01*
X147533465Y-104606205D01*
X147612817Y-104509514D01*
X147671782Y-104399200D01*
X147708092Y-104279502D01*
X147720352Y-104155020D01*
X147720352Y-104154028D01*
X147742360Y-104156196D01*
X147779682Y-104152520D01*
X147779693Y-104152520D01*
X147891346Y-104141523D01*
X148034607Y-104098066D01*
X148166636Y-104027494D01*
X148282361Y-103932521D01*
X148306163Y-103903518D01*
X149034964Y-103174718D01*
X149063961Y-103150921D01*
X149158934Y-103035196D01*
X149229506Y-102903167D01*
X149272963Y-102759906D01*
X149283960Y-102648253D01*
X149283960Y-102648244D01*
X149287636Y-102610921D01*
X149283960Y-102573598D01*
X149283960Y-96384602D01*
X149287636Y-96347279D01*
X149283960Y-96309956D01*
X149283960Y-96309947D01*
X149272963Y-96198294D01*
X149229506Y-96055033D01*
X149189634Y-95980438D01*
X149158934Y-95923003D01*
X149087759Y-95836277D01*
X149063961Y-95807279D01*
X149034963Y-95783481D01*
X148295912Y-95044431D01*
X148295912Y-94806160D01*
X148279809Y-94642660D01*
X148232118Y-94485444D01*
X148154671Y-94340552D01*
X148070977Y-94238570D01*
X148109025Y-94207345D01*
X148188377Y-94110654D01*
X148247342Y-94000340D01*
X148283652Y-93880642D01*
X148295912Y-93756160D01*
X148292840Y-93641910D01*
X148134090Y-93483160D01*
X147309840Y-93483160D01*
X147309840Y-93503160D01*
X147055840Y-93503160D01*
X147055840Y-93483160D01*
X147035840Y-93483160D01*
X147035840Y-93229160D01*
X147055840Y-93229160D01*
X147055840Y-92479910D01*
X147309840Y-92479910D01*
X147309840Y-93229160D01*
X148134090Y-93229160D01*
X148292840Y-93070410D01*
X148295912Y-92956160D01*
X148283652Y-92831678D01*
X148247342Y-92711980D01*
X148188377Y-92601666D01*
X148109025Y-92504975D01*
X148012334Y-92425623D01*
X147902020Y-92366658D01*
X147782322Y-92330348D01*
X147657840Y-92318088D01*
X147468590Y-92321160D01*
X147309840Y-92479910D01*
X147055840Y-92479910D01*
X146897090Y-92321160D01*
X146707840Y-92318088D01*
X146583358Y-92330348D01*
X146552497Y-92339710D01*
X146534121Y-92317319D01*
X146505124Y-92293522D01*
X144922882Y-90711281D01*
X145332770Y-90881062D01*
X145793064Y-90972620D01*
X146262376Y-90972620D01*
X146722670Y-90881062D01*
X147156257Y-90701464D01*
X147546475Y-90440729D01*
X147878329Y-90108875D01*
X148139064Y-89718657D01*
X148318662Y-89285070D01*
X148410220Y-88824776D01*
X148410220Y-88355464D01*
X148318662Y-87895170D01*
X148139064Y-87461583D01*
X147878329Y-87071365D01*
X147546475Y-86739511D01*
X147156257Y-86478776D01*
X146722670Y-86299178D01*
X146262376Y-86207620D01*
X145793064Y-86207620D01*
X145332770Y-86299178D01*
X144899183Y-86478776D01*
X144508965Y-86739511D01*
X144177111Y-87071365D01*
X143916376Y-87461583D01*
X143736778Y-87895170D01*
X143645220Y-88355464D01*
X143645220Y-88824776D01*
X143736778Y-89285070D01*
X143906560Y-89694958D01*
X141217720Y-87006119D01*
X141217720Y-86996536D01*
X141318613Y-86929121D01*
X141506721Y-86741013D01*
X141654517Y-86519821D01*
X141707720Y-86391378D01*
X141760923Y-86519821D01*
X141908719Y-86741013D01*
X142096827Y-86929121D01*
X142318019Y-87076917D01*
X142563794Y-87178721D01*
X142824707Y-87230620D01*
X143090733Y-87230620D01*
X143351646Y-87178721D01*
X143597421Y-87076917D01*
X143818613Y-86929121D01*
X144006721Y-86741013D01*
X144154517Y-86519821D01*
X144256321Y-86274046D01*
X144308220Y-86013133D01*
X144308220Y-85747107D01*
X144256321Y-85486194D01*
X144154517Y-85240419D01*
X144006721Y-85019227D01*
X143818613Y-84831119D01*
X143597421Y-84683323D01*
X143351646Y-84581519D01*
X143090733Y-84529620D01*
X142824707Y-84529620D01*
X142782958Y-84537924D01*
X141728438Y-83483406D01*
X141702581Y-83451899D01*
X141576882Y-83348741D01*
X141433474Y-83272087D01*
X141277866Y-83224884D01*
X141156593Y-83212940D01*
X141156590Y-83212940D01*
X141116040Y-83208946D01*
X141075490Y-83212940D01*
X138703057Y-83212940D01*
X138662517Y-83208947D01*
X138621977Y-83212940D01*
X138621965Y-83212940D01*
X138500692Y-83224884D01*
X138345084Y-83272087D01*
X138220196Y-83338842D01*
X138201674Y-83348742D01*
X138145551Y-83394801D01*
X138075977Y-83451899D01*
X138050124Y-83483401D01*
X136684676Y-84848850D01*
X136649118Y-84712426D01*
X136408028Y-84599977D01*
X136149632Y-84536725D01*
X135883861Y-84525098D01*
X135620928Y-84565543D01*
X135370938Y-84656508D01*
X135266322Y-84712426D01*
X135204980Y-84947775D01*
X135957720Y-85700515D01*
X135971863Y-85686373D01*
X136151468Y-85865978D01*
X136137325Y-85880120D01*
X136151468Y-85894263D01*
X135971863Y-86073868D01*
X135957720Y-86059725D01*
X135204980Y-86812465D01*
X135266322Y-87047814D01*
X135507412Y-87160263D01*
X135765808Y-87223515D01*
X136031579Y-87235142D01*
X136294512Y-87194697D01*
X136494942Y-87121766D01*
X136516021Y-87161202D01*
X136530399Y-87178721D01*
X136619179Y-87286901D01*
X136650686Y-87312758D01*
X141770796Y-92432869D01*
X141673940Y-92381098D01*
X141554242Y-92344788D01*
X141429760Y-92332528D01*
X141240510Y-92335600D01*
X141081760Y-92494350D01*
X141081760Y-93293600D01*
X141906010Y-93293600D01*
X142064760Y-93134850D01*
X142067832Y-92970600D01*
X142055572Y-92846118D01*
X142019262Y-92726420D01*
X141967491Y-92629564D01*
X142554408Y-93216482D01*
X142554408Y-93623040D01*
X142570992Y-93791417D01*
X142620105Y-93953323D01*
X142698180Y-94099391D01*
X142661943Y-94143546D01*
X142602978Y-94253860D01*
X142566668Y-94373558D01*
X142554408Y-94498040D01*
X142557480Y-94662290D01*
X142716230Y-94821040D01*
X143540480Y-94821040D01*
X143540480Y-94801040D01*
X143794480Y-94801040D01*
X143794480Y-94821040D01*
X143814480Y-94821040D01*
X143814480Y-95075040D01*
X143794480Y-95075040D01*
X143794480Y-95095040D01*
X143540480Y-95095040D01*
X143540480Y-95075040D01*
X142716230Y-95075040D01*
X142557480Y-95233790D01*
X142554408Y-95398040D01*
X142566668Y-95522522D01*
X142602978Y-95642220D01*
X142661943Y-95752534D01*
X142741295Y-95849225D01*
X142837986Y-95928577D01*
X142948300Y-95987542D01*
X143067998Y-96023852D01*
X143192480Y-96036112D01*
X143381730Y-96033040D01*
X143540478Y-95874292D01*
X143540478Y-95877487D01*
X143107241Y-96310725D01*
X143075740Y-96336577D01*
X143049889Y-96368077D01*
X142972581Y-96462276D01*
X142916098Y-96567948D01*
X142802280Y-96567948D01*
X142702280Y-96577797D01*
X142602280Y-96567948D01*
X142162280Y-96567948D01*
X142062280Y-96577797D01*
X141962280Y-96567948D01*
X141522280Y-96567948D01*
X141422280Y-96577797D01*
X141322280Y-96567948D01*
X140882280Y-96567948D01*
X140782280Y-96577797D01*
X140682280Y-96567948D01*
X140582280Y-96567948D01*
X140582280Y-96417881D01*
X140941490Y-96058672D01*
X141204760Y-96058672D01*
X141373137Y-96042088D01*
X141535043Y-95992975D01*
X141684257Y-95913218D01*
X141815044Y-95805884D01*
X141922378Y-95675097D01*
X142002135Y-95525883D01*
X142051248Y-95363977D01*
X142067832Y-95195600D01*
X142067832Y-94745600D01*
X142051248Y-94577223D01*
X142002135Y-94415317D01*
X141924060Y-94269249D01*
X141960297Y-94225094D01*
X142019262Y-94114780D01*
X142055572Y-93995082D01*
X142067832Y-93870600D01*
X142064760Y-93706350D01*
X141906010Y-93547600D01*
X141081760Y-93547600D01*
X141081760Y-93567600D01*
X140827760Y-93567600D01*
X140827760Y-93547600D01*
X140003510Y-93547600D01*
X139844760Y-93706350D01*
X139841688Y-93870600D01*
X139853948Y-93995082D01*
X139890258Y-94114780D01*
X139949223Y-94225094D01*
X139985460Y-94269249D01*
X139907385Y-94415317D01*
X139858272Y-94577223D01*
X139841688Y-94745600D01*
X139841688Y-95008871D01*
X139311278Y-95539281D01*
X139282280Y-95563079D01*
X139267313Y-95581316D01*
X139247826Y-95517073D01*
X139177254Y-95385044D01*
X139135688Y-95334396D01*
X139082281Y-95269319D01*
X139053282Y-95245521D01*
X138831872Y-95024110D01*
X138831872Y-94760840D01*
X138815288Y-94592463D01*
X138766175Y-94430557D01*
X138688100Y-94284489D01*
X138724337Y-94240334D01*
X138783302Y-94130020D01*
X138819612Y-94010322D01*
X138831872Y-93885840D01*
X138828800Y-93721590D01*
X138670050Y-93562840D01*
X137845800Y-93562840D01*
X137845800Y-93582840D01*
X137591800Y-93582840D01*
X137591800Y-93562840D01*
X136767550Y-93562840D01*
X136608800Y-93721590D01*
X136605728Y-93885840D01*
X136617988Y-94010322D01*
X136654298Y-94130020D01*
X136713263Y-94240334D01*
X136749500Y-94284489D01*
X136671425Y-94430557D01*
X136622312Y-94592463D01*
X136605728Y-94760840D01*
X136605728Y-95210840D01*
X136622312Y-95379217D01*
X136671425Y-95541123D01*
X136751182Y-95690337D01*
X136858516Y-95821124D01*
X136989303Y-95928458D01*
X137138517Y-96008215D01*
X137300423Y-96057328D01*
X137468800Y-96073912D01*
X137732070Y-96073912D01*
X137782281Y-96124123D01*
X137782281Y-96869229D01*
X137732778Y-96961840D01*
X137696468Y-97081538D01*
X137684208Y-97206020D01*
X137684208Y-98731020D01*
X137696468Y-98855502D01*
X137732778Y-98975200D01*
X137754020Y-99014941D01*
X137731978Y-99018520D01*
X137708654Y-99027227D01*
X137687477Y-99040318D01*
X137669261Y-99057288D01*
X137654705Y-99077486D01*
X137644370Y-99100136D01*
X137638651Y-99124366D01*
X137637770Y-99149247D01*
X137671257Y-99681992D01*
X135117913Y-99681990D01*
X133576600Y-98140679D01*
X133576600Y-97169909D01*
X133699486Y-97087799D01*
X133892399Y-96894886D01*
X134043971Y-96668043D01*
X134148375Y-96415989D01*
X134201600Y-96148411D01*
X134201600Y-95875589D01*
X134148375Y-95608011D01*
X134043971Y-95355957D01*
X133892399Y-95129114D01*
X133699486Y-94936201D01*
X133472643Y-94784629D01*
X133220589Y-94680225D01*
X132953011Y-94627000D01*
X132680189Y-94627000D01*
X132412611Y-94680225D01*
X132160557Y-94784629D01*
X131933714Y-94936201D01*
X131740801Y-95129114D01*
X131589229Y-95355957D01*
X131484825Y-95608011D01*
X131431600Y-95875589D01*
X131431600Y-96148411D01*
X131484825Y-96415989D01*
X131589229Y-96668043D01*
X131740801Y-96894886D01*
X131933714Y-97087799D01*
X132056600Y-97169909D01*
X132056601Y-98418148D01*
X132052924Y-98455480D01*
X132056601Y-98492813D01*
X132067598Y-98604466D01*
X132080780Y-98647922D01*
X132111054Y-98747726D01*
X132181626Y-98879756D01*
X132252801Y-98966482D01*
X132276600Y-98995481D01*
X132305598Y-99019279D01*
X132793318Y-99507000D01*
X132680189Y-99507000D01*
X132412611Y-99560225D01*
X132160557Y-99664629D01*
X131933714Y-99816201D01*
X131740801Y-100009114D01*
X131589229Y-100235957D01*
X131484825Y-100488011D01*
X131431600Y-100755589D01*
X131431600Y-101028411D01*
X131484825Y-101295989D01*
X131589229Y-101548043D01*
X131740801Y-101774886D01*
X131933714Y-101967799D01*
X132160557Y-102119371D01*
X132412611Y-102223775D01*
X132680189Y-102277000D01*
X132953011Y-102277000D01*
X133220589Y-102223775D01*
X133472643Y-102119371D01*
X133699486Y-101967799D01*
X133892399Y-101774886D01*
X133974509Y-101652000D01*
X137294461Y-101652000D01*
X137848314Y-102205854D01*
X137786590Y-102283362D01*
X137729253Y-102394531D01*
X137694706Y-102514750D01*
X137684277Y-102639398D01*
X137687280Y-103106770D01*
X137846030Y-103265520D01*
X138324208Y-103265520D01*
X138324208Y-103519520D01*
X137846030Y-103519520D01*
X137687280Y-103678270D01*
X137684277Y-104145642D01*
X137694706Y-104270290D01*
X137729253Y-104390509D01*
X137786590Y-104501678D01*
X137864512Y-104599525D01*
X137960027Y-104680290D01*
X138069463Y-104740869D01*
X138188614Y-104778934D01*
X138290530Y-104790020D01*
X138449280Y-104631270D01*
X138449280Y-104530883D01*
X138511095Y-104606205D01*
X138607786Y-104685557D01*
X138718100Y-104744522D01*
X138761783Y-104757773D01*
X138794030Y-104790020D01*
X138859158Y-104782936D01*
X138962280Y-104793092D01*
X139402280Y-104793092D01*
X139502280Y-104783243D01*
X139602280Y-104793092D01*
X139702281Y-104793092D01*
X139702280Y-106239747D01*
X137782100Y-108159927D01*
X137782100Y-107739304D01*
X137690542Y-107279010D01*
X137510944Y-106845423D01*
X137250209Y-106455205D01*
X136918355Y-106123351D01*
X136528137Y-105862616D01*
X136094550Y-105683018D01*
X135634256Y-105591460D01*
X135164944Y-105591460D01*
X134704650Y-105683018D01*
X134271063Y-105862616D01*
X133880845Y-106123351D01*
X133548991Y-106455205D01*
X133288256Y-106845423D01*
X133108658Y-107279010D01*
X133017100Y-107739304D01*
X133017100Y-108208616D01*
X133108658Y-108668910D01*
X133288256Y-109102497D01*
X133548991Y-109492715D01*
X133880845Y-109824569D01*
X134271063Y-110085304D01*
X134704650Y-110264902D01*
X135164944Y-110356460D01*
X135585568Y-110356460D01*
X133488495Y-112453533D01*
X133329301Y-112347163D01*
X133200858Y-112293960D01*
X133329301Y-112240757D01*
X133550493Y-112092961D01*
X133738601Y-111904853D01*
X133886397Y-111683661D01*
X133988201Y-111437886D01*
X134040100Y-111176973D01*
X134040100Y-110910947D01*
X133988201Y-110650034D01*
X133886397Y-110404259D01*
X133738601Y-110183067D01*
X133550493Y-109994959D01*
X133329301Y-109847163D01*
X133083526Y-109745359D01*
X132822613Y-109693460D01*
X132556587Y-109693460D01*
X132295674Y-109745359D01*
X132049899Y-109847163D01*
X131828707Y-109994959D01*
X131640599Y-110183067D01*
X131492803Y-110404259D01*
X131390999Y-110650034D01*
X131339100Y-110910947D01*
X128915160Y-110910947D01*
X128915160Y-92985840D01*
X136605728Y-92985840D01*
X136608800Y-93150090D01*
X136767550Y-93308840D01*
X137591800Y-93308840D01*
X137591800Y-92509590D01*
X137845800Y-92509590D01*
X137845800Y-93308840D01*
X138670050Y-93308840D01*
X138828800Y-93150090D01*
X138831872Y-92985840D01*
X138830372Y-92970600D01*
X139841688Y-92970600D01*
X139844760Y-93134850D01*
X140003510Y-93293600D01*
X140827760Y-93293600D01*
X140827760Y-92494350D01*
X140669010Y-92335600D01*
X140479760Y-92332528D01*
X140355278Y-92344788D01*
X140235580Y-92381098D01*
X140125266Y-92440063D01*
X140028575Y-92519415D01*
X139949223Y-92616106D01*
X139890258Y-92726420D01*
X139853948Y-92846118D01*
X139841688Y-92970600D01*
X138830372Y-92970600D01*
X138819612Y-92861358D01*
X138783302Y-92741660D01*
X138724337Y-92631346D01*
X138644985Y-92534655D01*
X138548294Y-92455303D01*
X138437980Y-92396338D01*
X138318282Y-92360028D01*
X138193800Y-92347768D01*
X138004550Y-92350840D01*
X137845800Y-92509590D01*
X137591800Y-92509590D01*
X137433050Y-92350840D01*
X137243800Y-92347768D01*
X137119318Y-92360028D01*
X136999620Y-92396338D01*
X136889306Y-92455303D01*
X136792615Y-92534655D01*
X136713263Y-92631346D01*
X136654298Y-92741660D01*
X136617988Y-92861358D01*
X136605728Y-92985840D01*
X128915160Y-92985840D01*
X128915160Y-88355464D01*
X130505220Y-88355464D01*
X130505220Y-88824776D01*
X130596778Y-89285070D01*
X130776376Y-89718657D01*
X131037111Y-90108875D01*
X131368965Y-90440729D01*
X131759183Y-90701464D01*
X132192770Y-90881062D01*
X132653064Y-90972620D01*
X133122376Y-90972620D01*
X133582670Y-90881062D01*
X134016257Y-90701464D01*
X134406475Y-90440729D01*
X134738329Y-90108875D01*
X134999064Y-89718657D01*
X135178662Y-89285070D01*
X135270220Y-88824776D01*
X135270220Y-88355464D01*
X135178662Y-87895170D01*
X134999064Y-87461583D01*
X134738329Y-87071365D01*
X134406475Y-86739511D01*
X134016257Y-86478776D01*
X133582670Y-86299178D01*
X133122376Y-86207620D01*
X132653064Y-86207620D01*
X132192770Y-86299178D01*
X131759183Y-86478776D01*
X131368965Y-86739511D01*
X131037111Y-87071365D01*
X130776376Y-87461583D01*
X130596778Y-87895170D01*
X130505220Y-88355464D01*
X128915160Y-88355464D01*
X128915160Y-85953979D01*
X134602698Y-85953979D01*
X134643143Y-86216912D01*
X134734108Y-86466902D01*
X134790026Y-86571518D01*
X135025375Y-86632860D01*
X135778115Y-85880120D01*
X135025375Y-85127380D01*
X134790026Y-85188722D01*
X134677577Y-85429812D01*
X134614325Y-85688208D01*
X134602698Y-85953979D01*
X128915160Y-85953979D01*
X128915160Y-82905600D01*
X149346920Y-82905600D01*
X149346920Y-88589799D01*
%TA.AperFunction,Conductor*%
D26*
G36*
X149346920Y-88589799D02*
G01*
X149294163Y-88668755D01*
X149227450Y-88829815D01*
X149193440Y-89000795D01*
X149193440Y-89175125D01*
X149227450Y-89346105D01*
X149294163Y-89507165D01*
X149346920Y-89586121D01*
X149346920Y-89656599D01*
X149294163Y-89735555D01*
X149227450Y-89896615D01*
X149193440Y-90067595D01*
X149193440Y-90241925D01*
X149227450Y-90412905D01*
X149294163Y-90573965D01*
X149346920Y-90652921D01*
X149346920Y-90659985D01*
X149268763Y-90776955D01*
X149202050Y-90938015D01*
X149168040Y-91108995D01*
X149168040Y-91283325D01*
X149202050Y-91454305D01*
X149268763Y-91615365D01*
X149346920Y-91732335D01*
X149346920Y-116533301D01*
X149274176Y-116606045D01*
X149177323Y-116750995D01*
X149110610Y-116912055D01*
X149076600Y-117083035D01*
X149076600Y-117257365D01*
X149110610Y-117428345D01*
X149177323Y-117589405D01*
X149253626Y-117703600D01*
X149177323Y-117817795D01*
X149110610Y-117978855D01*
X149076600Y-118149835D01*
X149076600Y-118324165D01*
X149110610Y-118495145D01*
X149177323Y-118656205D01*
X149232440Y-118738693D01*
X149151923Y-118859195D01*
X149085210Y-119020255D01*
X149051200Y-119191235D01*
X149051200Y-119365565D01*
X149085210Y-119536545D01*
X149151923Y-119697605D01*
X149248776Y-119842555D01*
X149346920Y-119940699D01*
X149346920Y-124256800D01*
X128915160Y-124256800D01*
X128915160Y-120879304D01*
X133017100Y-120879304D01*
X133017100Y-121348616D01*
X133108658Y-121808910D01*
X133288256Y-122242497D01*
X133548991Y-122632715D01*
X133880845Y-122964569D01*
X134271063Y-123225304D01*
X134704650Y-123404902D01*
X135164944Y-123496460D01*
X135634256Y-123496460D01*
X136094550Y-123404902D01*
X136528137Y-123225304D01*
X136918355Y-122964569D01*
X137250209Y-122632715D01*
X137510944Y-122242497D01*
X137690542Y-121808910D01*
X137782100Y-121348616D01*
X137782100Y-120879304D01*
X137777884Y-120858104D01*
X143116140Y-120858104D01*
X143116140Y-121327416D01*
X143207698Y-121787710D01*
X143387296Y-122221297D01*
X143648031Y-122611515D01*
X143979885Y-122943369D01*
X144370103Y-123204104D01*
X144803690Y-123383702D01*
X145263984Y-123475260D01*
X145733296Y-123475260D01*
X146193590Y-123383702D01*
X146627177Y-123204104D01*
X147017395Y-122943369D01*
X147349249Y-122611515D01*
X147609984Y-122221297D01*
X147789582Y-121787710D01*
X147881140Y-121327416D01*
X147881140Y-120858104D01*
X147789582Y-120397810D01*
X147609984Y-119964223D01*
X147349249Y-119574005D01*
X147017395Y-119242151D01*
X146627177Y-118981416D01*
X146193590Y-118801818D01*
X145733296Y-118710260D01*
X145263984Y-118710260D01*
X144803690Y-118801818D01*
X144370103Y-118981416D01*
X143979885Y-119242151D01*
X143648031Y-119574005D01*
X143387296Y-119964223D01*
X143207698Y-120397810D01*
X143116140Y-120858104D01*
X137777884Y-120858104D01*
X137690542Y-120419010D01*
X137510944Y-119985423D01*
X137250209Y-119595205D01*
X136918355Y-119263351D01*
X136528137Y-119002616D01*
X136413436Y-118955105D01*
X142035900Y-118955105D01*
X142097242Y-119190454D01*
X142338332Y-119302903D01*
X142596728Y-119366155D01*
X142862499Y-119377782D01*
X143125432Y-119337337D01*
X143375422Y-119246372D01*
X143480038Y-119190454D01*
X143541380Y-118955105D01*
X142788640Y-118202365D01*
X142035900Y-118955105D01*
X136413436Y-118955105D01*
X136094550Y-118823018D01*
X135634256Y-118731460D01*
X135164944Y-118731460D01*
X134704650Y-118823018D01*
X134271063Y-119002616D01*
X133880845Y-119263351D01*
X133548991Y-119595205D01*
X133288256Y-119985423D01*
X133108658Y-120419010D01*
X133017100Y-120879304D01*
X128915160Y-120879304D01*
X128915160Y-118976305D01*
X131936860Y-118976305D01*
X131998202Y-119211654D01*
X132239292Y-119324103D01*
X132497688Y-119387355D01*
X132763459Y-119398982D01*
X133026392Y-119358537D01*
X133276382Y-119267572D01*
X133380998Y-119211654D01*
X133442340Y-118976305D01*
X132689600Y-118223565D01*
X131936860Y-118976305D01*
X128915160Y-118976305D01*
X128915160Y-118117819D01*
X131334578Y-118117819D01*
X131375023Y-118380752D01*
X131465988Y-118630742D01*
X131521906Y-118735358D01*
X131757255Y-118796700D01*
X132509995Y-118043960D01*
X132869205Y-118043960D01*
X133621945Y-118796700D01*
X133857294Y-118735358D01*
X133969743Y-118494268D01*
X134032995Y-118235872D01*
X134039087Y-118096619D01*
X141433618Y-118096619D01*
X141474063Y-118359552D01*
X141565028Y-118609542D01*
X141620946Y-118714158D01*
X141856295Y-118775500D01*
X142609035Y-118022760D01*
X142968245Y-118022760D01*
X143720985Y-118775500D01*
X143956334Y-118714158D01*
X144068783Y-118473068D01*
X144132035Y-118214672D01*
X144143662Y-117948901D01*
X144103217Y-117685968D01*
X144012252Y-117435978D01*
X143956334Y-117331362D01*
X143720985Y-117270020D01*
X142968245Y-118022760D01*
X142609035Y-118022760D01*
X141856295Y-117270020D01*
X141620946Y-117331362D01*
X141508497Y-117572452D01*
X141445245Y-117830848D01*
X141433618Y-118096619D01*
X134039087Y-118096619D01*
X134044622Y-117970101D01*
X134004177Y-117707168D01*
X133913212Y-117457178D01*
X133857294Y-117352562D01*
X133621945Y-117291220D01*
X132869205Y-118043960D01*
X132509995Y-118043960D01*
X131757255Y-117291220D01*
X131521906Y-117352562D01*
X131409457Y-117593652D01*
X131346205Y-117852048D01*
X131334578Y-118117819D01*
X128915160Y-118117819D01*
X128915160Y-110910947D01*
X131339100Y-110910947D01*
X131339100Y-111176973D01*
X131390999Y-111437886D01*
X131492803Y-111683661D01*
X131640599Y-111904853D01*
X131828707Y-112092961D01*
X132049899Y-112240757D01*
X132178342Y-112293960D01*
X132049899Y-112347163D01*
X131828707Y-112494959D01*
X131640599Y-112683067D01*
X131492803Y-112904259D01*
X131390999Y-113150034D01*
X131339100Y-113410947D01*
X131339100Y-113676973D01*
X131390999Y-113937886D01*
X131492803Y-114183661D01*
X131640599Y-114404853D01*
X131779706Y-114543960D01*
X131640599Y-114683067D01*
X131492803Y-114904259D01*
X131390999Y-115150034D01*
X131339100Y-115410947D01*
X131339100Y-115676973D01*
X131390999Y-115937886D01*
X131492803Y-116183661D01*
X131640599Y-116404853D01*
X131828707Y-116592961D01*
X132049899Y-116740757D01*
X132176937Y-116793378D01*
X132102818Y-116820348D01*
X131998202Y-116876266D01*
X131936860Y-117111615D01*
X132689600Y-117864355D01*
X133442340Y-117111615D01*
X133380998Y-116876266D01*
X133202805Y-116793154D01*
X133329301Y-116740757D01*
X133550493Y-116592961D01*
X133738601Y-116404853D01*
X133886397Y-116183661D01*
X133988201Y-115937886D01*
X134040100Y-115676973D01*
X134040100Y-115410947D01*
X134016427Y-115291934D01*
X141439361Y-107869001D01*
X141439361Y-108366717D01*
X140489483Y-109316596D01*
X140460479Y-109340399D01*
X140415336Y-109395407D01*
X140365506Y-109456124D01*
X140345948Y-109492715D01*
X140294934Y-109588154D01*
X140251477Y-109731415D01*
X140240480Y-109843068D01*
X140240480Y-109843078D01*
X140236804Y-109880400D01*
X140240480Y-109917723D01*
X140240481Y-111697268D01*
X140236804Y-111734600D01*
X140240481Y-111771933D01*
X140251478Y-111883586D01*
X140257929Y-111904853D01*
X140294934Y-112026846D01*
X140365506Y-112158876D01*
X140419083Y-112224159D01*
X140460480Y-112274601D01*
X140489478Y-112298399D01*
X141461813Y-113270735D01*
X141438140Y-113389747D01*
X141438140Y-113655773D01*
X141490039Y-113916686D01*
X141591843Y-114162461D01*
X141739639Y-114383653D01*
X141878746Y-114522760D01*
X141739639Y-114661867D01*
X141591843Y-114883059D01*
X141490039Y-115128834D01*
X141438140Y-115389747D01*
X141438140Y-115655773D01*
X141490039Y-115916686D01*
X141591843Y-116162461D01*
X141739639Y-116383653D01*
X141927747Y-116571761D01*
X142148939Y-116719557D01*
X142275977Y-116772178D01*
X142201858Y-116799148D01*
X142097242Y-116855066D01*
X142035900Y-117090415D01*
X142788640Y-117843155D01*
X143541380Y-117090415D01*
X143480038Y-116855066D01*
X143301845Y-116771954D01*
X143428341Y-116719557D01*
X143649533Y-116571761D01*
X143837641Y-116383653D01*
X143985437Y-116162461D01*
X144087241Y-115916686D01*
X144139140Y-115655773D01*
X144139140Y-115389747D01*
X144115467Y-115270735D01*
X145042083Y-114344119D01*
X145071081Y-114320321D01*
X145166054Y-114204596D01*
X145236626Y-114072567D01*
X145280083Y-113929306D01*
X145291080Y-113817653D01*
X145291080Y-113817644D01*
X145294756Y-113780321D01*
X145291080Y-113742998D01*
X145291080Y-110857522D01*
X145294756Y-110820199D01*
X145291080Y-110782876D01*
X145291080Y-110782867D01*
X145280083Y-110671214D01*
X145236626Y-110527953D01*
X145166054Y-110395924D01*
X145087451Y-110300145D01*
X145263984Y-110335260D01*
X145733296Y-110335260D01*
X146193590Y-110243702D01*
X146627177Y-110064104D01*
X147017395Y-109803369D01*
X147349249Y-109471515D01*
X147609984Y-109081297D01*
X147789582Y-108647710D01*
X147881140Y-108187416D01*
X147881140Y-107718104D01*
X147789582Y-107257810D01*
X147609984Y-106824223D01*
X147349249Y-106434005D01*
X147017395Y-106102151D01*
X146627177Y-105841416D01*
X146193590Y-105661818D01*
X145733296Y-105570260D01*
X145263984Y-105570260D01*
X144803690Y-105661818D01*
X144370103Y-105841416D01*
X143979885Y-106102151D01*
X143648031Y-106434005D01*
X143574040Y-106544740D01*
X143574040Y-106034681D01*
X144173284Y-105435438D01*
X144202281Y-105411641D01*
X144297254Y-105295916D01*
X144367826Y-105163887D01*
X144411283Y-105020626D01*
X144422280Y-104908973D01*
X144422280Y-104908972D01*
X144425957Y-104871640D01*
X144422280Y-104834307D01*
X144422280Y-104793092D01*
X144522280Y-104793092D01*
X144622280Y-104783243D01*
X144722280Y-104793092D01*
X145162280Y-104793092D01*
X145262280Y-104783243D01*
X145362280Y-104793092D01*
X145802280Y-104793092D01*
X145902280Y-104783243D01*
X146002280Y-104793092D01*
X146442280Y-104793092D01*
X146542280Y-104783243D01*
X146642280Y-104793092D01*
X147082280Y-104793092D01*
X147206762Y-104780832D01*
X147326460Y-104744522D01*
X147436774Y-104685557D01*
X147533465Y-104606205D01*
X147612817Y-104509514D01*
X147671782Y-104399200D01*
X147708092Y-104279502D01*
X147720352Y-104155020D01*
X147720352Y-104154028D01*
X147742360Y-104156196D01*
X147779682Y-104152520D01*
X147779693Y-104152520D01*
X147891346Y-104141523D01*
X148034607Y-104098066D01*
X148166636Y-104027494D01*
X148282361Y-103932521D01*
X148306163Y-103903518D01*
X149034964Y-103174718D01*
X149063961Y-103150921D01*
X149158934Y-103035196D01*
X149229506Y-102903167D01*
X149272963Y-102759906D01*
X149283960Y-102648253D01*
X149283960Y-102648244D01*
X149287636Y-102610921D01*
X149283960Y-102573598D01*
X149283960Y-96384602D01*
X149287636Y-96347279D01*
X149283960Y-96309956D01*
X149283960Y-96309947D01*
X149272963Y-96198294D01*
X149229506Y-96055033D01*
X149189634Y-95980438D01*
X149158934Y-95923003D01*
X149087759Y-95836277D01*
X149063961Y-95807279D01*
X149034963Y-95783481D01*
X148295912Y-95044431D01*
X148295912Y-94806160D01*
X148279809Y-94642660D01*
X148232118Y-94485444D01*
X148154671Y-94340552D01*
X148070977Y-94238570D01*
X148109025Y-94207345D01*
X148188377Y-94110654D01*
X148247342Y-94000340D01*
X148283652Y-93880642D01*
X148295912Y-93756160D01*
X148292840Y-93641910D01*
X148134090Y-93483160D01*
X147309840Y-93483160D01*
X147309840Y-93503160D01*
X147055840Y-93503160D01*
X147055840Y-93483160D01*
X147035840Y-93483160D01*
X147035840Y-93229160D01*
X147055840Y-93229160D01*
X147055840Y-92479910D01*
X147309840Y-92479910D01*
X147309840Y-93229160D01*
X148134090Y-93229160D01*
X148292840Y-93070410D01*
X148295912Y-92956160D01*
X148283652Y-92831678D01*
X148247342Y-92711980D01*
X148188377Y-92601666D01*
X148109025Y-92504975D01*
X148012334Y-92425623D01*
X147902020Y-92366658D01*
X147782322Y-92330348D01*
X147657840Y-92318088D01*
X147468590Y-92321160D01*
X147309840Y-92479910D01*
X147055840Y-92479910D01*
X146897090Y-92321160D01*
X146707840Y-92318088D01*
X146583358Y-92330348D01*
X146552497Y-92339710D01*
X146534121Y-92317319D01*
X146505124Y-92293522D01*
X144922882Y-90711281D01*
X145332770Y-90881062D01*
X145793064Y-90972620D01*
X146262376Y-90972620D01*
X146722670Y-90881062D01*
X147156257Y-90701464D01*
X147546475Y-90440729D01*
X147878329Y-90108875D01*
X148139064Y-89718657D01*
X148318662Y-89285070D01*
X148410220Y-88824776D01*
X148410220Y-88355464D01*
X148318662Y-87895170D01*
X148139064Y-87461583D01*
X147878329Y-87071365D01*
X147546475Y-86739511D01*
X147156257Y-86478776D01*
X146722670Y-86299178D01*
X146262376Y-86207620D01*
X145793064Y-86207620D01*
X145332770Y-86299178D01*
X144899183Y-86478776D01*
X144508965Y-86739511D01*
X144177111Y-87071365D01*
X143916376Y-87461583D01*
X143736778Y-87895170D01*
X143645220Y-88355464D01*
X143645220Y-88824776D01*
X143736778Y-89285070D01*
X143906560Y-89694958D01*
X141217720Y-87006119D01*
X141217720Y-86996536D01*
X141318613Y-86929121D01*
X141506721Y-86741013D01*
X141654517Y-86519821D01*
X141707720Y-86391378D01*
X141760923Y-86519821D01*
X141908719Y-86741013D01*
X142096827Y-86929121D01*
X142318019Y-87076917D01*
X142563794Y-87178721D01*
X142824707Y-87230620D01*
X143090733Y-87230620D01*
X143351646Y-87178721D01*
X143597421Y-87076917D01*
X143818613Y-86929121D01*
X144006721Y-86741013D01*
X144154517Y-86519821D01*
X144256321Y-86274046D01*
X144308220Y-86013133D01*
X144308220Y-85747107D01*
X144256321Y-85486194D01*
X144154517Y-85240419D01*
X144006721Y-85019227D01*
X143818613Y-84831119D01*
X143597421Y-84683323D01*
X143351646Y-84581519D01*
X143090733Y-84529620D01*
X142824707Y-84529620D01*
X142782958Y-84537924D01*
X141728438Y-83483406D01*
X141702581Y-83451899D01*
X141576882Y-83348741D01*
X141433474Y-83272087D01*
X141277866Y-83224884D01*
X141156593Y-83212940D01*
X141156590Y-83212940D01*
X141116040Y-83208946D01*
X141075490Y-83212940D01*
X138703057Y-83212940D01*
X138662517Y-83208947D01*
X138621977Y-83212940D01*
X138621965Y-83212940D01*
X138500692Y-83224884D01*
X138345084Y-83272087D01*
X138220196Y-83338842D01*
X138201674Y-83348742D01*
X138145551Y-83394801D01*
X138075977Y-83451899D01*
X138050124Y-83483401D01*
X136684676Y-84848850D01*
X136649118Y-84712426D01*
X136408028Y-84599977D01*
X136149632Y-84536725D01*
X135883861Y-84525098D01*
X135620928Y-84565543D01*
X135370938Y-84656508D01*
X135266322Y-84712426D01*
X135204980Y-84947775D01*
X135957720Y-85700515D01*
X135971863Y-85686373D01*
X136151468Y-85865978D01*
X136137325Y-85880120D01*
X136151468Y-85894263D01*
X135971863Y-86073868D01*
X135957720Y-86059725D01*
X135204980Y-86812465D01*
X135266322Y-87047814D01*
X135507412Y-87160263D01*
X135765808Y-87223515D01*
X136031579Y-87235142D01*
X136294512Y-87194697D01*
X136494942Y-87121766D01*
X136516021Y-87161202D01*
X136530399Y-87178721D01*
X136619179Y-87286901D01*
X136650686Y-87312758D01*
X141770796Y-92432869D01*
X141673940Y-92381098D01*
X141554242Y-92344788D01*
X141429760Y-92332528D01*
X141240510Y-92335600D01*
X141081760Y-92494350D01*
X141081760Y-93293600D01*
X141906010Y-93293600D01*
X142064760Y-93134850D01*
X142067832Y-92970600D01*
X142055572Y-92846118D01*
X142019262Y-92726420D01*
X141967491Y-92629564D01*
X142554408Y-93216482D01*
X142554408Y-93623040D01*
X142570992Y-93791417D01*
X142620105Y-93953323D01*
X142698180Y-94099391D01*
X142661943Y-94143546D01*
X142602978Y-94253860D01*
X142566668Y-94373558D01*
X142554408Y-94498040D01*
X142557480Y-94662290D01*
X142716230Y-94821040D01*
X143540480Y-94821040D01*
X143540480Y-94801040D01*
X143794480Y-94801040D01*
X143794480Y-94821040D01*
X143814480Y-94821040D01*
X143814480Y-95075040D01*
X143794480Y-95075040D01*
X143794480Y-95095040D01*
X143540480Y-95095040D01*
X143540480Y-95075040D01*
X142716230Y-95075040D01*
X142557480Y-95233790D01*
X142554408Y-95398040D01*
X142566668Y-95522522D01*
X142602978Y-95642220D01*
X142661943Y-95752534D01*
X142741295Y-95849225D01*
X142837986Y-95928577D01*
X142948300Y-95987542D01*
X143067998Y-96023852D01*
X143192480Y-96036112D01*
X143381730Y-96033040D01*
X143540478Y-95874292D01*
X143540478Y-95877487D01*
X143107241Y-96310725D01*
X143075740Y-96336577D01*
X143049889Y-96368077D01*
X142972581Y-96462276D01*
X142916098Y-96567948D01*
X142802280Y-96567948D01*
X142702280Y-96577797D01*
X142602280Y-96567948D01*
X142162280Y-96567948D01*
X142062280Y-96577797D01*
X141962280Y-96567948D01*
X141522280Y-96567948D01*
X141422280Y-96577797D01*
X141322280Y-96567948D01*
X140882280Y-96567948D01*
X140782280Y-96577797D01*
X140682280Y-96567948D01*
X140582280Y-96567948D01*
X140582280Y-96417881D01*
X140941490Y-96058672D01*
X141204760Y-96058672D01*
X141373137Y-96042088D01*
X141535043Y-95992975D01*
X141684257Y-95913218D01*
X141815044Y-95805884D01*
X141922378Y-95675097D01*
X142002135Y-95525883D01*
X142051248Y-95363977D01*
X142067832Y-95195600D01*
X142067832Y-94745600D01*
X142051248Y-94577223D01*
X142002135Y-94415317D01*
X141924060Y-94269249D01*
X141960297Y-94225094D01*
X142019262Y-94114780D01*
X142055572Y-93995082D01*
X142067832Y-93870600D01*
X142064760Y-93706350D01*
X141906010Y-93547600D01*
X141081760Y-93547600D01*
X141081760Y-93567600D01*
X140827760Y-93567600D01*
X140827760Y-93547600D01*
X140003510Y-93547600D01*
X139844760Y-93706350D01*
X139841688Y-93870600D01*
X139853948Y-93995082D01*
X139890258Y-94114780D01*
X139949223Y-94225094D01*
X139985460Y-94269249D01*
X139907385Y-94415317D01*
X139858272Y-94577223D01*
X139841688Y-94745600D01*
X139841688Y-95008871D01*
X139311278Y-95539281D01*
X139282280Y-95563079D01*
X139267313Y-95581316D01*
X139247826Y-95517073D01*
X139177254Y-95385044D01*
X139135688Y-95334396D01*
X139082281Y-95269319D01*
X139053282Y-95245521D01*
X138831872Y-95024110D01*
X138831872Y-94760840D01*
X138815288Y-94592463D01*
X138766175Y-94430557D01*
X138688100Y-94284489D01*
X138724337Y-94240334D01*
X138783302Y-94130020D01*
X138819612Y-94010322D01*
X138831872Y-93885840D01*
X138828800Y-93721590D01*
X138670050Y-93562840D01*
X137845800Y-93562840D01*
X137845800Y-93582840D01*
X137591800Y-93582840D01*
X137591800Y-93562840D01*
X136767550Y-93562840D01*
X136608800Y-93721590D01*
X136605728Y-93885840D01*
X136617988Y-94010322D01*
X136654298Y-94130020D01*
X136713263Y-94240334D01*
X136749500Y-94284489D01*
X136671425Y-94430557D01*
X136622312Y-94592463D01*
X136605728Y-94760840D01*
X136605728Y-95210840D01*
X136622312Y-95379217D01*
X136671425Y-95541123D01*
X136751182Y-95690337D01*
X136858516Y-95821124D01*
X136989303Y-95928458D01*
X137138517Y-96008215D01*
X137300423Y-96057328D01*
X137468800Y-96073912D01*
X137732070Y-96073912D01*
X137782281Y-96124123D01*
X137782281Y-96869229D01*
X137732778Y-96961840D01*
X137696468Y-97081538D01*
X137684208Y-97206020D01*
X137684208Y-98731020D01*
X137696468Y-98855502D01*
X137732778Y-98975200D01*
X137754020Y-99014941D01*
X137731978Y-99018520D01*
X137708654Y-99027227D01*
X137687477Y-99040318D01*
X137669261Y-99057288D01*
X137654705Y-99077486D01*
X137644370Y-99100136D01*
X137638651Y-99124366D01*
X137637770Y-99149247D01*
X137671257Y-99681992D01*
X135117913Y-99681990D01*
X133576600Y-98140679D01*
X133576600Y-97169909D01*
X133699486Y-97087799D01*
X133892399Y-96894886D01*
X134043971Y-96668043D01*
X134148375Y-96415989D01*
X134201600Y-96148411D01*
X134201600Y-95875589D01*
X134148375Y-95608011D01*
X134043971Y-95355957D01*
X133892399Y-95129114D01*
X133699486Y-94936201D01*
X133472643Y-94784629D01*
X133220589Y-94680225D01*
X132953011Y-94627000D01*
X132680189Y-94627000D01*
X132412611Y-94680225D01*
X132160557Y-94784629D01*
X131933714Y-94936201D01*
X131740801Y-95129114D01*
X131589229Y-95355957D01*
X131484825Y-95608011D01*
X131431600Y-95875589D01*
X131431600Y-96148411D01*
X131484825Y-96415989D01*
X131589229Y-96668043D01*
X131740801Y-96894886D01*
X131933714Y-97087799D01*
X132056600Y-97169909D01*
X132056601Y-98418148D01*
X132052924Y-98455480D01*
X132056601Y-98492813D01*
X132067598Y-98604466D01*
X132080780Y-98647922D01*
X132111054Y-98747726D01*
X132181626Y-98879756D01*
X132252801Y-98966482D01*
X132276600Y-98995481D01*
X132305598Y-99019279D01*
X132793318Y-99507000D01*
X132680189Y-99507000D01*
X132412611Y-99560225D01*
X132160557Y-99664629D01*
X131933714Y-99816201D01*
X131740801Y-100009114D01*
X131589229Y-100235957D01*
X131484825Y-100488011D01*
X131431600Y-100755589D01*
X131431600Y-101028411D01*
X131484825Y-101295989D01*
X131589229Y-101548043D01*
X131740801Y-101774886D01*
X131933714Y-101967799D01*
X132160557Y-102119371D01*
X132412611Y-102223775D01*
X132680189Y-102277000D01*
X132953011Y-102277000D01*
X133220589Y-102223775D01*
X133472643Y-102119371D01*
X133699486Y-101967799D01*
X133892399Y-101774886D01*
X133974509Y-101652000D01*
X137294461Y-101652000D01*
X137848314Y-102205854D01*
X137786590Y-102283362D01*
X137729253Y-102394531D01*
X137694706Y-102514750D01*
X137684277Y-102639398D01*
X137687280Y-103106770D01*
X137846030Y-103265520D01*
X138324208Y-103265520D01*
X138324208Y-103519520D01*
X137846030Y-103519520D01*
X137687280Y-103678270D01*
X137684277Y-104145642D01*
X137694706Y-104270290D01*
X137729253Y-104390509D01*
X137786590Y-104501678D01*
X137864512Y-104599525D01*
X137960027Y-104680290D01*
X138069463Y-104740869D01*
X138188614Y-104778934D01*
X138290530Y-104790020D01*
X138449280Y-104631270D01*
X138449280Y-104530883D01*
X138511095Y-104606205D01*
X138607786Y-104685557D01*
X138718100Y-104744522D01*
X138761783Y-104757773D01*
X138794030Y-104790020D01*
X138859158Y-104782936D01*
X138962280Y-104793092D01*
X139402280Y-104793092D01*
X139502280Y-104783243D01*
X139602280Y-104793092D01*
X139702281Y-104793092D01*
X139702280Y-106239747D01*
X137782100Y-108159927D01*
X137782100Y-107739304D01*
X137690542Y-107279010D01*
X137510944Y-106845423D01*
X137250209Y-106455205D01*
X136918355Y-106123351D01*
X136528137Y-105862616D01*
X136094550Y-105683018D01*
X135634256Y-105591460D01*
X135164944Y-105591460D01*
X134704650Y-105683018D01*
X134271063Y-105862616D01*
X133880845Y-106123351D01*
X133548991Y-106455205D01*
X133288256Y-106845423D01*
X133108658Y-107279010D01*
X133017100Y-107739304D01*
X133017100Y-108208616D01*
X133108658Y-108668910D01*
X133288256Y-109102497D01*
X133548991Y-109492715D01*
X133880845Y-109824569D01*
X134271063Y-110085304D01*
X134704650Y-110264902D01*
X135164944Y-110356460D01*
X135585568Y-110356460D01*
X133488495Y-112453533D01*
X133329301Y-112347163D01*
X133200858Y-112293960D01*
X133329301Y-112240757D01*
X133550493Y-112092961D01*
X133738601Y-111904853D01*
X133886397Y-111683661D01*
X133988201Y-111437886D01*
X134040100Y-111176973D01*
X134040100Y-110910947D01*
X133988201Y-110650034D01*
X133886397Y-110404259D01*
X133738601Y-110183067D01*
X133550493Y-109994959D01*
X133329301Y-109847163D01*
X133083526Y-109745359D01*
X132822613Y-109693460D01*
X132556587Y-109693460D01*
X132295674Y-109745359D01*
X132049899Y-109847163D01*
X131828707Y-109994959D01*
X131640599Y-110183067D01*
X131492803Y-110404259D01*
X131390999Y-110650034D01*
X131339100Y-110910947D01*
X128915160Y-110910947D01*
X128915160Y-92985840D01*
X136605728Y-92985840D01*
X136608800Y-93150090D01*
X136767550Y-93308840D01*
X137591800Y-93308840D01*
X137591800Y-92509590D01*
X137845800Y-92509590D01*
X137845800Y-93308840D01*
X138670050Y-93308840D01*
X138828800Y-93150090D01*
X138831872Y-92985840D01*
X138830372Y-92970600D01*
X139841688Y-92970600D01*
X139844760Y-93134850D01*
X140003510Y-93293600D01*
X140827760Y-93293600D01*
X140827760Y-92494350D01*
X140669010Y-92335600D01*
X140479760Y-92332528D01*
X140355278Y-92344788D01*
X140235580Y-92381098D01*
X140125266Y-92440063D01*
X140028575Y-92519415D01*
X139949223Y-92616106D01*
X139890258Y-92726420D01*
X139853948Y-92846118D01*
X139841688Y-92970600D01*
X138830372Y-92970600D01*
X138819612Y-92861358D01*
X138783302Y-92741660D01*
X138724337Y-92631346D01*
X138644985Y-92534655D01*
X138548294Y-92455303D01*
X138437980Y-92396338D01*
X138318282Y-92360028D01*
X138193800Y-92347768D01*
X138004550Y-92350840D01*
X137845800Y-92509590D01*
X137591800Y-92509590D01*
X137433050Y-92350840D01*
X137243800Y-92347768D01*
X137119318Y-92360028D01*
X136999620Y-92396338D01*
X136889306Y-92455303D01*
X136792615Y-92534655D01*
X136713263Y-92631346D01*
X136654298Y-92741660D01*
X136617988Y-92861358D01*
X136605728Y-92985840D01*
X128915160Y-92985840D01*
X128915160Y-88355464D01*
X130505220Y-88355464D01*
X130505220Y-88824776D01*
X130596778Y-89285070D01*
X130776376Y-89718657D01*
X131037111Y-90108875D01*
X131368965Y-90440729D01*
X131759183Y-90701464D01*
X132192770Y-90881062D01*
X132653064Y-90972620D01*
X133122376Y-90972620D01*
X133582670Y-90881062D01*
X134016257Y-90701464D01*
X134406475Y-90440729D01*
X134738329Y-90108875D01*
X134999064Y-89718657D01*
X135178662Y-89285070D01*
X135270220Y-88824776D01*
X135270220Y-88355464D01*
X135178662Y-87895170D01*
X134999064Y-87461583D01*
X134738329Y-87071365D01*
X134406475Y-86739511D01*
X134016257Y-86478776D01*
X133582670Y-86299178D01*
X133122376Y-86207620D01*
X132653064Y-86207620D01*
X132192770Y-86299178D01*
X131759183Y-86478776D01*
X131368965Y-86739511D01*
X131037111Y-87071365D01*
X130776376Y-87461583D01*
X130596778Y-87895170D01*
X130505220Y-88355464D01*
X128915160Y-88355464D01*
X128915160Y-85953979D01*
X134602698Y-85953979D01*
X134643143Y-86216912D01*
X134734108Y-86466902D01*
X134790026Y-86571518D01*
X135025375Y-86632860D01*
X135778115Y-85880120D01*
X135025375Y-85127380D01*
X134790026Y-85188722D01*
X134677577Y-85429812D01*
X134614325Y-85688208D01*
X134602698Y-85953979D01*
X128915160Y-85953979D01*
X128915160Y-82905600D01*
X149346920Y-82905600D01*
X149346920Y-88589799D01*
G37*
%TD.AperFunction*%
%TD*%
M02*
