%TF.GenerationSoftware,KiCad,Pcbnew,(5.1.9)-1*%
%TF.CreationDate,2021-07-20T01:30:18-07:00*%
%TF.ProjectId,retrocution-usb-hub,72657472-6f63-4757-9469-6f6e2d757362,rev?*%
%TF.SameCoordinates,Original*%
%TF.FileFunction,Profile,NP*%
%FSLAX46Y46*%
G04 Gerber Fmt 4.6, Leading zero omitted, Abs format (unit mm)*
G04 Created by KiCad (PCBNEW (5.1.9)-1) date 2021-07-20 01:30:18*
%MOMM*%
%LPD*%
G01*
G04 APERTURE LIST*
%TA.AperFunction,Profile*%
%ADD10C,0.050000*%
%TD*%
G04 APERTURE END LIST*
D10*
X171861481Y-105643748D02*
G75*
G02*
X171871640Y-104129840I-1J756988D01*
G01*
X168127714Y-104139950D02*
G75*
G02*
X168142920Y-105674160I5046J-767130D01*
G01*
X150469519Y-92182787D02*
G75*
G02*
X152857200Y-92191840I1193881J6187D01*
G01*
X152420610Y-116586002D02*
G75*
G02*
X150469600Y-116586000I-975505J4395D01*
G01*
X152857200Y-104134920D02*
X152857200Y-92191840D01*
X168127714Y-104139949D02*
X152857200Y-104134920D01*
X152420320Y-105674160D02*
X168142920Y-105674160D01*
X152420320Y-116586000D02*
X152420320Y-105674160D01*
X150469600Y-92186760D02*
X150469600Y-116586000D01*
X150469990Y-119917399D02*
G75*
G02*
X152420320Y-119898160I974970J29399D01*
G01*
X152862439Y-88107540D02*
G75*
G02*
X150454361Y-88092281I-1204119J-5060D01*
G01*
X152867360Y-76200000D02*
X152867360Y-88107520D01*
X186913520Y-76200000D02*
X152867360Y-76200000D01*
X186913520Y-104129840D02*
X186913520Y-76200000D01*
X171871640Y-104129840D02*
X186913520Y-104129840D01*
X186959240Y-105643680D02*
X171861480Y-105643680D01*
X186959240Y-131572000D02*
X186959240Y-105643680D01*
X152420320Y-131572000D02*
X186959240Y-131572000D01*
X152420320Y-119898160D02*
X152420320Y-131572000D01*
X150469600Y-131561840D02*
X150469600Y-119913400D01*
X128122680Y-131561840D02*
X150469600Y-131561840D01*
X128122680Y-76230480D02*
X128122680Y-131561840D01*
X131587240Y-76230480D02*
X128122680Y-76230480D01*
X150454360Y-76230480D02*
X150454360Y-88092280D01*
X146979640Y-76230480D02*
X150454360Y-76230480D01*
X131587240Y-76230480D02*
X146979640Y-76230480D01*
M02*
