%TF.GenerationSoftware,KiCad,Pcbnew,(5.1.9)-1*%
%TF.CreationDate,2021-07-20T01:30:18-07:00*%
%TF.ProjectId,retrocution-usb-hub,72657472-6f63-4757-9469-6f6e2d757362,rev?*%
%TF.SameCoordinates,Original*%
%TF.FileFunction,Soldermask,Bot*%
%TF.FilePolarity,Negative*%
%FSLAX46Y46*%
G04 Gerber Fmt 4.6, Leading zero omitted, Abs format (unit mm)*
G04 Created by KiCad (PCBNEW (5.1.9)-1) date 2021-07-20 01:30:18*
%MOMM*%
%LPD*%
G01*
G04 APERTURE LIST*
%ADD10C,0.500000*%
%ADD11C,2.100000*%
%ADD12C,3.100000*%
%ADD13C,4.700000*%
%ADD14C,0.460000*%
%ADD15C,1.700000*%
%ADD16O,1.700000X1.700000*%
%ADD17R,1.700000X1.700000*%
%ADD18C,1.500000*%
%ADD19C,1.431000*%
%ADD20C,3.495000*%
G04 APERTURE END LIST*
D10*
%TO.C,REF\u002A\u002A*%
X170007280Y-106105960D03*
X171074080Y-106105960D03*
X168965880Y-106080560D03*
%TD*%
%TO.C,REF\u002A\u002A*%
X169966640Y-103738680D03*
X171033440Y-103738680D03*
X168925240Y-103713280D03*
%TD*%
%TO.C,REF\u002A\u002A*%
X149961600Y-118237000D03*
X149961600Y-117170200D03*
X149936200Y-119278400D03*
%TD*%
%TO.C,REF\u002A\u002A*%
X152943560Y-118226840D03*
X152943560Y-117160040D03*
X152918160Y-119268240D03*
%TD*%
%TO.C,REF\u002A\u002A*%
X150078440Y-90154760D03*
X150078440Y-89087960D03*
X150053040Y-91196160D03*
%TD*%
%TO.C,REF\u002A\u002A*%
X153233120Y-90164920D03*
X153233120Y-89098120D03*
X153207720Y-91206320D03*
%TD*%
D11*
%TO.C,REF\u002A\u002A*%
X173868080Y-118389400D03*
%TD*%
D12*
%TO.C,REF\u002A\u002A*%
X131500880Y-79298800D03*
D13*
X131500880Y-79298800D03*
%TD*%
D12*
%TO.C,REF\u002A\u002A*%
X146776440Y-79324200D03*
D13*
X146776440Y-79324200D03*
%TD*%
D12*
%TO.C,REF\u002A\u002A*%
X156052520Y-79354680D03*
D13*
X156052520Y-79354680D03*
%TD*%
D12*
%TO.C,REF\u002A\u002A*%
X183388000Y-100980240D03*
D13*
X183388000Y-100980240D03*
%TD*%
D12*
%TO.C,REF\u002A\u002A*%
X183311800Y-79298800D03*
D13*
X183311800Y-79298800D03*
%TD*%
D12*
%TO.C,REF\u002A\u002A*%
X156072840Y-100980240D03*
D13*
X156072840Y-100980240D03*
%TD*%
%TO.C,REF\u002A\u002A*%
X155864560Y-128107440D03*
D12*
X155864560Y-128107440D03*
%TD*%
%TO.C,REF\u002A\u002A*%
X155666440Y-108818680D03*
D13*
X155666440Y-108818680D03*
%TD*%
D12*
%TO.C,REF\u002A\u002A*%
X183499760Y-108747560D03*
D13*
X183499760Y-108747560D03*
%TD*%
%TO.C,REF\u002A\u002A*%
X183591200Y-128102360D03*
D12*
X183591200Y-128102360D03*
%TD*%
%TO.C,REF\u002A\u002A*%
X147101560Y-128148080D03*
D13*
X147101560Y-128148080D03*
%TD*%
%TO.C,REF\u002A\u002A*%
X131226560Y-128127760D03*
D12*
X131226560Y-128127760D03*
%TD*%
D14*
%TO.C,U1*%
X171749720Y-88138000D03*
X164637720Y-95351600D03*
X157525720Y-88138000D03*
X164637720Y-81051400D03*
%TD*%
D15*
%TO.C,SW4*%
X177172760Y-128274200D03*
X170672760Y-128274200D03*
X177172760Y-123774200D03*
X170672760Y-123774200D03*
%TD*%
%TO.C,SW3*%
X178104800Y-116199920D03*
X184604800Y-116199920D03*
X178104800Y-120699920D03*
X184604800Y-120699920D03*
%TD*%
%TO.C,SW2*%
X177121960Y-113095160D03*
X170621960Y-113095160D03*
X177121960Y-108595160D03*
X170621960Y-108595160D03*
%TD*%
%TO.C,SW1*%
X169585640Y-120685560D03*
X163085640Y-120685560D03*
X169585640Y-116185560D03*
X163085640Y-116185560D03*
%TD*%
D16*
%TO.C,J5*%
X157652720Y-123667520D03*
X157652720Y-121127520D03*
X157652720Y-118587520D03*
X157652720Y-116047520D03*
D17*
X157652720Y-113507520D03*
%TD*%
D16*
%TO.C,J4*%
X182595520Y-95031560D03*
X182595520Y-92491560D03*
X182595520Y-89951560D03*
X182595520Y-87411560D03*
D17*
X182595520Y-84871560D03*
%TD*%
D18*
%TO.C,Y1*%
X132816600Y-100892000D03*
X132816600Y-96012000D03*
%TD*%
D19*
%TO.C,J3*%
X135957720Y-85880120D03*
X138457720Y-85880120D03*
X140457720Y-85880120D03*
X142957720Y-85880120D03*
D20*
X132887720Y-88590120D03*
X146027720Y-88590120D03*
%TD*%
D19*
%TO.C,J2*%
X142788640Y-118022760D03*
X142788640Y-115522760D03*
X142788640Y-113522760D03*
X142788640Y-111022760D03*
D20*
X145498640Y-121092760D03*
X145498640Y-107952760D03*
%TD*%
D19*
%TO.C,J1*%
X132689600Y-118043960D03*
X132689600Y-115543960D03*
X132689600Y-113543960D03*
X132689600Y-111043960D03*
D20*
X135399600Y-121113960D03*
X135399600Y-107973960D03*
%TD*%
M02*
