M48
; DRILL file {KiCad (5.1.9)-1} date 07/20/21 01:31:50
; FORMAT={2:4/ absolute / inch / suppress leading zeros}
; #@! TF.CreationDate,2021-07-20T01:31:50-07:00
; #@! TF.GenerationSoftware,Kicad,Pcbnew,(5.1.9)-1
; #@! TF.FileFunction,Plated,1,2,PTH
FMAT,2
INCH,TZ
T1C0.0157
T2C0.0161
T3C0.0315
T4C0.0362
T5C0.0394
T6C0.0917
T7C0.1063
%
G90
G05
T1
X68956Y-38436
T2
X62018Y-34700
X64818Y-31910
X64818Y-37540
X67618Y-34710
T3
X52290Y-37800
X52290Y-39721
T4
X52240Y-43718
X52240Y-44702
X52240Y-45490
X52240Y-46474
X53527Y-33811
X54511Y-33811
X55298Y-33811
X56216Y-43710
X56216Y-44694
X56216Y-45481
X56216Y-46466
X56283Y-33811
T5
X62068Y-44688
X62068Y-45688
X62068Y-46688
X62068Y-47688
X62068Y-48688
X64207Y-45742
X64207Y-47514
X66766Y-45742
X66766Y-47514
X67174Y-42754
X67174Y-44526
X67194Y-48730
X67194Y-50502
X69733Y-42754
X69733Y-44526
X69753Y-48730
X69753Y-50502
X70120Y-45748
X70120Y-47520
X71888Y-33414
X71888Y-34414
X71888Y-35414
X71888Y-36414
X71888Y-37414
X72679Y-45748
X72679Y-47520
T6
X52318Y-34878
X53307Y-42509
X53307Y-47683
X57283Y-42501
X57283Y-47674
X57491Y-34878
T7
X51664Y-50444
X51772Y-31220
X57786Y-31230
X57914Y-50452
X61286Y-42842
X61364Y-50436
X61438Y-31242
X61446Y-39756
X72170Y-31220
X72200Y-39756
X72244Y-42814
X72280Y-50434
T0
M30
