%TF.GenerationSoftware,KiCad,Pcbnew,(5.1.9)-1*%
%TF.CreationDate,2021-07-20T01:30:18-07:00*%
%TF.ProjectId,retrocution-usb-hub,72657472-6f63-4757-9469-6f6e2d757362,rev?*%
%TF.SameCoordinates,Original*%
%TF.FileFunction,Legend,Top*%
%TF.FilePolarity,Positive*%
%FSLAX46Y46*%
G04 Gerber Fmt 4.6, Leading zero omitted, Abs format (unit mm)*
G04 Created by KiCad (PCBNEW (5.1.9)-1) date 2021-07-20 01:30:18*
%MOMM*%
%LPD*%
G01*
G04 APERTURE LIST*
%ADD10C,0.120000*%
%ADD11C,0.200000*%
%ADD12C,0.100000*%
%ADD13C,0.150000*%
%ADD14C,0.254000*%
G04 APERTURE END LIST*
D10*
%TO.C,SW4*%
X175336974Y-126024200D02*
G75*
G03*
X175336974Y-126024200I-1414214J0D01*
G01*
X170952760Y-129144200D02*
X176892760Y-129144200D01*
X170952760Y-122904200D02*
X176892760Y-122904200D01*
X170802760Y-127364200D02*
X170802760Y-124684200D01*
X177042760Y-124684200D02*
X177042760Y-127364200D01*
%TO.C,SW3*%
X184474800Y-117109920D02*
X184474800Y-119789920D01*
X178234800Y-119789920D02*
X178234800Y-117109920D01*
X178384800Y-115329920D02*
X184324800Y-115329920D01*
X178384800Y-121569920D02*
X184324800Y-121569920D01*
X182769014Y-118449920D02*
G75*
G03*
X182769014Y-118449920I-1414214J0D01*
G01*
%TO.C,SW2*%
X175286174Y-110845160D02*
G75*
G03*
X175286174Y-110845160I-1414214J0D01*
G01*
X170901960Y-113965160D02*
X176841960Y-113965160D01*
X170901960Y-107725160D02*
X176841960Y-107725160D01*
X170751960Y-112185160D02*
X170751960Y-109505160D01*
X176991960Y-109505160D02*
X176991960Y-112185160D01*
%TO.C,SW1*%
X163215640Y-119775560D02*
X163215640Y-117095560D01*
X169455640Y-117095560D02*
X169455640Y-119775560D01*
X169305640Y-121555560D02*
X163365640Y-121555560D01*
X169305640Y-115315560D02*
X163365640Y-115315560D01*
X167749854Y-118435560D02*
G75*
G03*
X167749854Y-118435560I-1414214J0D01*
G01*
%TO.C,J5*%
X156322720Y-112177520D02*
X157652720Y-112177520D01*
X156322720Y-113507520D02*
X156322720Y-112177520D01*
X156322720Y-114777520D02*
X158982720Y-114777520D01*
X158982720Y-114777520D02*
X158982720Y-124997520D01*
X156322720Y-114777520D02*
X156322720Y-124997520D01*
X156322720Y-124997520D02*
X158982720Y-124997520D01*
%TO.C,J4*%
X181265520Y-83541560D02*
X182595520Y-83541560D01*
X181265520Y-84871560D02*
X181265520Y-83541560D01*
X181265520Y-86141560D02*
X183925520Y-86141560D01*
X183925520Y-86141560D02*
X183925520Y-96361560D01*
X181265520Y-86141560D02*
X181265520Y-96361560D01*
X181265520Y-96361560D02*
X183925520Y-96361560D01*
%TO.C,Y1*%
X130291600Y-95252000D02*
X130291600Y-101652000D01*
X135341600Y-95252000D02*
X135341600Y-101652000D01*
X130291600Y-101652000D02*
G75*
G03*
X135341600Y-101652000I2525000J0D01*
G01*
X130291600Y-95252000D02*
G75*
G02*
X135341600Y-95252000I2525000J0D01*
G01*
%TO.C,R1*%
X147705340Y-94418418D02*
X147705340Y-93943902D01*
X146660340Y-94418418D02*
X146660340Y-93943902D01*
D11*
%TO.C,J3*%
X132207720Y-90880120D02*
X146457720Y-90880120D01*
X146707720Y-84190120D02*
X146707720Y-86380120D01*
X132207720Y-84190120D02*
X146707720Y-84190120D01*
X132207720Y-84190120D02*
X132207720Y-84190120D01*
X132207720Y-86380120D02*
X132207720Y-84190120D01*
X132207720Y-86380120D02*
X132207720Y-86380120D01*
X132207720Y-86380120D02*
X132207720Y-86380120D01*
D12*
X131357720Y-85880120D02*
X131357720Y-85880120D01*
X131457720Y-85880120D02*
X131457720Y-85880120D01*
X131357720Y-85880120D02*
G75*
G02*
X131457720Y-85880120I50000J0D01*
G01*
X131457720Y-85880120D02*
G75*
G02*
X131357720Y-85880120I-50000J0D01*
G01*
D11*
%TO.C,J2*%
X147788640Y-121772760D02*
X147788640Y-107522760D01*
X141098640Y-107272760D02*
X143288640Y-107272760D01*
X141098640Y-121772760D02*
X141098640Y-107272760D01*
X141098640Y-121772760D02*
X141098640Y-121772760D01*
X143288640Y-121772760D02*
X141098640Y-121772760D01*
X143288640Y-121772760D02*
X143288640Y-121772760D01*
X143288640Y-121772760D02*
X143288640Y-121772760D01*
D12*
X142788640Y-122622760D02*
X142788640Y-122622760D01*
X142788640Y-122522760D02*
X142788640Y-122522760D01*
X142788640Y-122622760D02*
G75*
G02*
X142788640Y-122522760I0J50000D01*
G01*
X142788640Y-122522760D02*
G75*
G02*
X142788640Y-122622760I0J-50000D01*
G01*
D11*
%TO.C,J1*%
X137689600Y-121793960D02*
X137689600Y-107543960D01*
X130999600Y-107293960D02*
X133189600Y-107293960D01*
X130999600Y-121793960D02*
X130999600Y-107293960D01*
X130999600Y-121793960D02*
X130999600Y-121793960D01*
X133189600Y-121793960D02*
X130999600Y-121793960D01*
X133189600Y-121793960D02*
X133189600Y-121793960D01*
X133189600Y-121793960D02*
X133189600Y-121793960D01*
D12*
X132689600Y-122643960D02*
X132689600Y-122643960D01*
X132689600Y-122543960D02*
X132689600Y-122543960D01*
X132689600Y-122643960D02*
G75*
G02*
X132689600Y-122543960I0J50000D01*
G01*
X132689600Y-122543960D02*
G75*
G02*
X132689600Y-122643960I0J-50000D01*
G01*
D11*
%TO.C,IC1*%
X137972280Y-104155520D02*
X137972280Y-102630520D01*
X147652280Y-102280520D02*
X137752280Y-102280520D01*
X147652280Y-99080520D02*
X147652280Y-102280520D01*
X137752280Y-99080520D02*
X147652280Y-99080520D01*
X137752280Y-102280520D02*
X137752280Y-99080520D01*
D10*
%TO.C,C3*%
X143157480Y-94032460D02*
X143157480Y-94313620D01*
X144177480Y-94032460D02*
X144177480Y-94313620D01*
%TO.C,C2*%
X141464760Y-94336180D02*
X141464760Y-94055020D01*
X140444760Y-94336180D02*
X140444760Y-94055020D01*
%TO.C,C1*%
X138228800Y-94351420D02*
X138228800Y-94070260D01*
X137208800Y-94351420D02*
X137208800Y-94070260D01*
%TO.C,REF\u002A\u002A*%
D13*
X172534746Y-115641780D02*
X172201413Y-115165590D01*
X171963318Y-115641780D02*
X171963318Y-114641780D01*
X172344270Y-114641780D01*
X172439508Y-114689400D01*
X172487127Y-114737019D01*
X172534746Y-114832257D01*
X172534746Y-114975114D01*
X172487127Y-115070352D01*
X172439508Y-115117971D01*
X172344270Y-115165590D01*
X171963318Y-115165590D01*
X172963318Y-115117971D02*
X173296651Y-115117971D01*
X173439508Y-115641780D02*
X172963318Y-115641780D01*
X172963318Y-114641780D01*
X173439508Y-114641780D01*
X174201413Y-115117971D02*
X173868080Y-115117971D01*
X173868080Y-115641780D02*
X173868080Y-114641780D01*
X174344270Y-114641780D01*
X174868080Y-114641780D02*
X174868080Y-114879876D01*
X174629984Y-114784638D02*
X174868080Y-114879876D01*
X175106175Y-114784638D01*
X174725222Y-115070352D02*
X174868080Y-114879876D01*
X175010937Y-115070352D01*
X175629984Y-114641780D02*
X175629984Y-114879876D01*
X175391889Y-114784638D02*
X175629984Y-114879876D01*
X175868080Y-114784638D01*
X175487127Y-115070352D02*
X175629984Y-114879876D01*
X175772841Y-115070352D01*
%TO.C,U1*%
X163875815Y-88123780D02*
X163875815Y-88933304D01*
X163923434Y-89028542D01*
X163971053Y-89076161D01*
X164066291Y-89123780D01*
X164256767Y-89123780D01*
X164352005Y-89076161D01*
X164399624Y-89028542D01*
X164447243Y-88933304D01*
X164447243Y-88123780D01*
X165447243Y-89123780D02*
X164875815Y-89123780D01*
X165161529Y-89123780D02*
X165161529Y-88123780D01*
X165066291Y-88266638D01*
X164971053Y-88361876D01*
X164875815Y-88409495D01*
%TO.C,SW4*%
X172589426Y-122128961D02*
X172732283Y-122176580D01*
X172970379Y-122176580D01*
X173065617Y-122128961D01*
X173113236Y-122081342D01*
X173160855Y-121986104D01*
X173160855Y-121890866D01*
X173113236Y-121795628D01*
X173065617Y-121748009D01*
X172970379Y-121700390D01*
X172779902Y-121652771D01*
X172684664Y-121605152D01*
X172637045Y-121557533D01*
X172589426Y-121462295D01*
X172589426Y-121367057D01*
X172637045Y-121271819D01*
X172684664Y-121224200D01*
X172779902Y-121176580D01*
X173017998Y-121176580D01*
X173160855Y-121224200D01*
X173494188Y-121176580D02*
X173732283Y-122176580D01*
X173922760Y-121462295D01*
X174113236Y-122176580D01*
X174351331Y-121176580D01*
X175160855Y-121509914D02*
X175160855Y-122176580D01*
X174922760Y-121128961D02*
X174684664Y-121843247D01*
X175303712Y-121843247D01*
%TO.C,SW3*%
X180021466Y-114554681D02*
X180164323Y-114602300D01*
X180402419Y-114602300D01*
X180497657Y-114554681D01*
X180545276Y-114507062D01*
X180592895Y-114411824D01*
X180592895Y-114316586D01*
X180545276Y-114221348D01*
X180497657Y-114173729D01*
X180402419Y-114126110D01*
X180211942Y-114078491D01*
X180116704Y-114030872D01*
X180069085Y-113983253D01*
X180021466Y-113888015D01*
X180021466Y-113792777D01*
X180069085Y-113697539D01*
X180116704Y-113649920D01*
X180211942Y-113602300D01*
X180450038Y-113602300D01*
X180592895Y-113649920D01*
X180926228Y-113602300D02*
X181164323Y-114602300D01*
X181354800Y-113888015D01*
X181545276Y-114602300D01*
X181783371Y-113602300D01*
X182069085Y-113602300D02*
X182688133Y-113602300D01*
X182354800Y-113983253D01*
X182497657Y-113983253D01*
X182592895Y-114030872D01*
X182640514Y-114078491D01*
X182688133Y-114173729D01*
X182688133Y-114411824D01*
X182640514Y-114507062D01*
X182592895Y-114554681D01*
X182497657Y-114602300D01*
X182211942Y-114602300D01*
X182116704Y-114554681D01*
X182069085Y-114507062D01*
%TO.C,SW2*%
X172538626Y-106949921D02*
X172681483Y-106997540D01*
X172919579Y-106997540D01*
X173014817Y-106949921D01*
X173062436Y-106902302D01*
X173110055Y-106807064D01*
X173110055Y-106711826D01*
X173062436Y-106616588D01*
X173014817Y-106568969D01*
X172919579Y-106521350D01*
X172729102Y-106473731D01*
X172633864Y-106426112D01*
X172586245Y-106378493D01*
X172538626Y-106283255D01*
X172538626Y-106188017D01*
X172586245Y-106092779D01*
X172633864Y-106045160D01*
X172729102Y-105997540D01*
X172967198Y-105997540D01*
X173110055Y-106045160D01*
X173443388Y-105997540D02*
X173681483Y-106997540D01*
X173871960Y-106283255D01*
X174062436Y-106997540D01*
X174300531Y-105997540D01*
X174633864Y-106092779D02*
X174681483Y-106045160D01*
X174776721Y-105997540D01*
X175014817Y-105997540D01*
X175110055Y-106045160D01*
X175157674Y-106092779D01*
X175205293Y-106188017D01*
X175205293Y-106283255D01*
X175157674Y-106426112D01*
X174586245Y-106997540D01*
X175205293Y-106997540D01*
%TO.C,SW1*%
X165002306Y-123140321D02*
X165145163Y-123187940D01*
X165383259Y-123187940D01*
X165478497Y-123140321D01*
X165526116Y-123092702D01*
X165573735Y-122997464D01*
X165573735Y-122902226D01*
X165526116Y-122806988D01*
X165478497Y-122759369D01*
X165383259Y-122711750D01*
X165192782Y-122664131D01*
X165097544Y-122616512D01*
X165049925Y-122568893D01*
X165002306Y-122473655D01*
X165002306Y-122378417D01*
X165049925Y-122283179D01*
X165097544Y-122235560D01*
X165192782Y-122187940D01*
X165430878Y-122187940D01*
X165573735Y-122235560D01*
X165907068Y-122187940D02*
X166145163Y-123187940D01*
X166335640Y-122473655D01*
X166526116Y-123187940D01*
X166764211Y-122187940D01*
X167668973Y-123187940D02*
X167097544Y-123187940D01*
X167383259Y-123187940D02*
X167383259Y-122187940D01*
X167288020Y-122330798D01*
X167192782Y-122426036D01*
X167097544Y-122473655D01*
%TO.C,J5*%
X157319386Y-110629900D02*
X157319386Y-111344186D01*
X157271767Y-111487043D01*
X157176529Y-111582281D01*
X157033672Y-111629900D01*
X156938434Y-111629900D01*
X158271767Y-110629900D02*
X157795577Y-110629900D01*
X157747958Y-111106091D01*
X157795577Y-111058472D01*
X157890815Y-111010853D01*
X158128910Y-111010853D01*
X158224148Y-111058472D01*
X158271767Y-111106091D01*
X158319386Y-111201329D01*
X158319386Y-111439424D01*
X158271767Y-111534662D01*
X158224148Y-111582281D01*
X158128910Y-111629900D01*
X157890815Y-111629900D01*
X157795577Y-111582281D01*
X157747958Y-111534662D01*
%TO.C,J4*%
X185061266Y-83109820D02*
X185061266Y-83824106D01*
X185013647Y-83966963D01*
X184918409Y-84062201D01*
X184775552Y-84109820D01*
X184680314Y-84109820D01*
X185966028Y-83443154D02*
X185966028Y-84109820D01*
X185727933Y-83062201D02*
X185489838Y-83776487D01*
X186108885Y-83776487D01*
%TO.C,Y1*%
X136317790Y-98928190D02*
X136793980Y-98928190D01*
X135793980Y-99261523D02*
X136317790Y-98928190D01*
X135793980Y-98594857D01*
X136793980Y-97737714D02*
X136793980Y-98309142D01*
X136793980Y-98023428D02*
X135793980Y-98023428D01*
X135936838Y-98118666D01*
X136032076Y-98213904D01*
X136079695Y-98309142D01*
%TO.C,R1*%
X146205220Y-94347826D02*
X145729030Y-94681160D01*
X146205220Y-94919255D02*
X145205220Y-94919255D01*
X145205220Y-94538302D01*
X145252840Y-94443064D01*
X145300459Y-94395445D01*
X145395697Y-94347826D01*
X145538554Y-94347826D01*
X145633792Y-94395445D01*
X145681411Y-94443064D01*
X145729030Y-94538302D01*
X145729030Y-94919255D01*
X146205220Y-93395445D02*
X146205220Y-93966874D01*
X146205220Y-93681160D02*
X145205220Y-93681160D01*
X145348078Y-93776398D01*
X145443316Y-93871636D01*
X145490935Y-93966874D01*
%TO.C,J3*%
D14*
X139048066Y-88295963D02*
X139048066Y-89203106D01*
X138987590Y-89384535D01*
X138866638Y-89505487D01*
X138685209Y-89565963D01*
X138564257Y-89565963D01*
X139531876Y-88295963D02*
X140318066Y-88295963D01*
X139894733Y-88779773D01*
X140076161Y-88779773D01*
X140197114Y-88840249D01*
X140257590Y-88900725D01*
X140318066Y-89021678D01*
X140318066Y-89324059D01*
X140257590Y-89445011D01*
X140197114Y-89505487D01*
X140076161Y-89565963D01*
X139713304Y-89565963D01*
X139592352Y-89505487D01*
X139531876Y-89445011D01*
%TO.C,J2*%
X144800803Y-114946853D02*
X145707946Y-114946853D01*
X145889375Y-115007329D01*
X146010327Y-115128281D01*
X146070803Y-115309710D01*
X146070803Y-115430662D01*
X144921756Y-114402567D02*
X144861280Y-114342091D01*
X144800803Y-114221139D01*
X144800803Y-113918758D01*
X144861280Y-113797805D01*
X144921756Y-113737329D01*
X145042708Y-113676853D01*
X145163660Y-113676853D01*
X145345089Y-113737329D01*
X146070803Y-114463043D01*
X146070803Y-113676853D01*
%TO.C,J1*%
X134330923Y-114946853D02*
X135238066Y-114946853D01*
X135419495Y-115007329D01*
X135540447Y-115128281D01*
X135600923Y-115309710D01*
X135600923Y-115430662D01*
X135600923Y-113676853D02*
X135600923Y-114402567D01*
X135600923Y-114039710D02*
X134330923Y-114039710D01*
X134512352Y-114160662D01*
X134633304Y-114281615D01*
X134693780Y-114402567D01*
%TO.C,IC1*%
X143276803Y-101920281D02*
X142006803Y-101920281D01*
X143155851Y-100589805D02*
X143216327Y-100650281D01*
X143276803Y-100831710D01*
X143276803Y-100952662D01*
X143216327Y-101134091D01*
X143095375Y-101255043D01*
X142974422Y-101315520D01*
X142732518Y-101375996D01*
X142551089Y-101375996D01*
X142309184Y-101315520D01*
X142188232Y-101255043D01*
X142067280Y-101134091D01*
X142006803Y-100952662D01*
X142006803Y-100831710D01*
X142067280Y-100650281D01*
X142127756Y-100589805D01*
X143276803Y-99380281D02*
X143276803Y-100105996D01*
X143276803Y-99743139D02*
X142006803Y-99743139D01*
X142188232Y-99864091D01*
X142309184Y-99985043D01*
X142369660Y-100105996D01*
%TO.C,C3*%
D13*
X145454622Y-94339706D02*
X145502241Y-94387325D01*
X145549860Y-94530182D01*
X145549860Y-94625420D01*
X145502241Y-94768278D01*
X145407003Y-94863516D01*
X145311765Y-94911135D01*
X145121289Y-94958754D01*
X144978432Y-94958754D01*
X144787956Y-94911135D01*
X144692718Y-94863516D01*
X144597480Y-94768278D01*
X144549860Y-94625420D01*
X144549860Y-94530182D01*
X144597480Y-94387325D01*
X144645099Y-94339706D01*
X144549860Y-94006373D02*
X144549860Y-93387325D01*
X144930813Y-93720659D01*
X144930813Y-93577801D01*
X144978432Y-93482563D01*
X145026051Y-93434944D01*
X145121289Y-93387325D01*
X145359384Y-93387325D01*
X145454622Y-93434944D01*
X145502241Y-93482563D01*
X145549860Y-93577801D01*
X145549860Y-93863516D01*
X145502241Y-93958754D01*
X145454622Y-94006373D01*
%TO.C,C2*%
X139881902Y-94362266D02*
X139929521Y-94409885D01*
X139977140Y-94552742D01*
X139977140Y-94647980D01*
X139929521Y-94790838D01*
X139834283Y-94886076D01*
X139739045Y-94933695D01*
X139548569Y-94981314D01*
X139405712Y-94981314D01*
X139215236Y-94933695D01*
X139119998Y-94886076D01*
X139024760Y-94790838D01*
X138977140Y-94647980D01*
X138977140Y-94552742D01*
X139024760Y-94409885D01*
X139072379Y-94362266D01*
X139072379Y-93981314D02*
X139024760Y-93933695D01*
X138977140Y-93838457D01*
X138977140Y-93600361D01*
X139024760Y-93505123D01*
X139072379Y-93457504D01*
X139167617Y-93409885D01*
X139262855Y-93409885D01*
X139405712Y-93457504D01*
X139977140Y-94028933D01*
X139977140Y-93409885D01*
%TO.C,C1*%
X136645942Y-94377506D02*
X136693561Y-94425125D01*
X136741180Y-94567982D01*
X136741180Y-94663220D01*
X136693561Y-94806078D01*
X136598323Y-94901316D01*
X136503085Y-94948935D01*
X136312609Y-94996554D01*
X136169752Y-94996554D01*
X135979276Y-94948935D01*
X135884038Y-94901316D01*
X135788800Y-94806078D01*
X135741180Y-94663220D01*
X135741180Y-94567982D01*
X135788800Y-94425125D01*
X135836419Y-94377506D01*
X136741180Y-93425125D02*
X136741180Y-93996554D01*
X136741180Y-93710840D02*
X135741180Y-93710840D01*
X135884038Y-93806078D01*
X135979276Y-93901316D01*
X136026895Y-93996554D01*
%TD*%
M02*
