%TF.GenerationSoftware,KiCad,Pcbnew,(5.1.9)-1*%
%TF.CreationDate,2021-07-20T01:30:18-07:00*%
%TF.ProjectId,retrocution-usb-hub,72657472-6f63-4757-9469-6f6e2d757362,rev?*%
%TF.SameCoordinates,Original*%
%TF.FileFunction,Paste,Top*%
%TF.FilePolarity,Positive*%
%FSLAX46Y46*%
G04 Gerber Fmt 4.6, Leading zero omitted, Abs format (unit mm)*
G04 Created by KiCad (PCBNEW (5.1.9)-1) date 2021-07-20 01:30:18*
%MOMM*%
%LPD*%
G01*
G04 APERTURE LIST*
%ADD10R,0.440000X1.525000*%
G04 APERTURE END LIST*
%TO.C,R1*%
G36*
G01*
X147457840Y-93756160D02*
X146907840Y-93756160D01*
G75*
G02*
X146707840Y-93556160I0J200000D01*
G01*
X146707840Y-93156160D01*
G75*
G02*
X146907840Y-92956160I200000J0D01*
G01*
X147457840Y-92956160D01*
G75*
G02*
X147657840Y-93156160I0J-200000D01*
G01*
X147657840Y-93556160D01*
G75*
G02*
X147457840Y-93756160I-200000J0D01*
G01*
G37*
G36*
G01*
X147457840Y-95406160D02*
X146907840Y-95406160D01*
G75*
G02*
X146707840Y-95206160I0J200000D01*
G01*
X146707840Y-94806160D01*
G75*
G02*
X146907840Y-94606160I200000J0D01*
G01*
X147457840Y-94606160D01*
G75*
G02*
X147657840Y-94806160I0J-200000D01*
G01*
X147657840Y-95206160D01*
G75*
G02*
X147457840Y-95406160I-200000J0D01*
G01*
G37*
%TD*%
D10*
%TO.C,IC1*%
X138542280Y-97968520D03*
X139182280Y-97968520D03*
X139822280Y-97968520D03*
X140462280Y-97968520D03*
X141102280Y-97968520D03*
X141742280Y-97968520D03*
X142382280Y-97968520D03*
X143022280Y-97968520D03*
X143662280Y-97968520D03*
X144302280Y-97968520D03*
X144942280Y-97968520D03*
X145582280Y-97968520D03*
X146222280Y-97968520D03*
X146862280Y-97968520D03*
X146862280Y-103392520D03*
X146222280Y-103392520D03*
X145582280Y-103392520D03*
X144942280Y-103392520D03*
X144302280Y-103392520D03*
X143662280Y-103392520D03*
X143022280Y-103392520D03*
X142382280Y-103392520D03*
X141742280Y-103392520D03*
X141102280Y-103392520D03*
X140462280Y-103392520D03*
X139822280Y-103392520D03*
X139182280Y-103392520D03*
X138542280Y-103392520D03*
%TD*%
%TO.C,C3*%
G36*
G01*
X143417480Y-94498040D02*
X143917480Y-94498040D01*
G75*
G02*
X144142480Y-94723040I0J-225000D01*
G01*
X144142480Y-95173040D01*
G75*
G02*
X143917480Y-95398040I-225000J0D01*
G01*
X143417480Y-95398040D01*
G75*
G02*
X143192480Y-95173040I0J225000D01*
G01*
X143192480Y-94723040D01*
G75*
G02*
X143417480Y-94498040I225000J0D01*
G01*
G37*
G36*
G01*
X143417480Y-92948040D02*
X143917480Y-92948040D01*
G75*
G02*
X144142480Y-93173040I0J-225000D01*
G01*
X144142480Y-93623040D01*
G75*
G02*
X143917480Y-93848040I-225000J0D01*
G01*
X143417480Y-93848040D01*
G75*
G02*
X143192480Y-93623040I0J225000D01*
G01*
X143192480Y-93173040D01*
G75*
G02*
X143417480Y-92948040I225000J0D01*
G01*
G37*
%TD*%
%TO.C,C2*%
G36*
G01*
X141204760Y-93870600D02*
X140704760Y-93870600D01*
G75*
G02*
X140479760Y-93645600I0J225000D01*
G01*
X140479760Y-93195600D01*
G75*
G02*
X140704760Y-92970600I225000J0D01*
G01*
X141204760Y-92970600D01*
G75*
G02*
X141429760Y-93195600I0J-225000D01*
G01*
X141429760Y-93645600D01*
G75*
G02*
X141204760Y-93870600I-225000J0D01*
G01*
G37*
G36*
G01*
X141204760Y-95420600D02*
X140704760Y-95420600D01*
G75*
G02*
X140479760Y-95195600I0J225000D01*
G01*
X140479760Y-94745600D01*
G75*
G02*
X140704760Y-94520600I225000J0D01*
G01*
X141204760Y-94520600D01*
G75*
G02*
X141429760Y-94745600I0J-225000D01*
G01*
X141429760Y-95195600D01*
G75*
G02*
X141204760Y-95420600I-225000J0D01*
G01*
G37*
%TD*%
%TO.C,C1*%
G36*
G01*
X137968800Y-93885840D02*
X137468800Y-93885840D01*
G75*
G02*
X137243800Y-93660840I0J225000D01*
G01*
X137243800Y-93210840D01*
G75*
G02*
X137468800Y-92985840I225000J0D01*
G01*
X137968800Y-92985840D01*
G75*
G02*
X138193800Y-93210840I0J-225000D01*
G01*
X138193800Y-93660840D01*
G75*
G02*
X137968800Y-93885840I-225000J0D01*
G01*
G37*
G36*
G01*
X137968800Y-95435840D02*
X137468800Y-95435840D01*
G75*
G02*
X137243800Y-95210840I0J225000D01*
G01*
X137243800Y-94760840D01*
G75*
G02*
X137468800Y-94535840I225000J0D01*
G01*
X137968800Y-94535840D01*
G75*
G02*
X138193800Y-94760840I0J-225000D01*
G01*
X138193800Y-95210840D01*
G75*
G02*
X137968800Y-95435840I-225000J0D01*
G01*
G37*
%TD*%
M02*
