%TF.GenerationSoftware,KiCad,Pcbnew,(5.1.9)-1*%
%TF.CreationDate,2021-07-20T01:30:18-07:00*%
%TF.ProjectId,retrocution-usb-hub,72657472-6f63-4757-9469-6f6e2d757362,rev?*%
%TF.SameCoordinates,Original*%
%TF.FileFunction,Soldermask,Top*%
%TF.FilePolarity,Negative*%
%FSLAX46Y46*%
G04 Gerber Fmt 4.6, Leading zero omitted, Abs format (unit mm)*
G04 Created by KiCad (PCBNEW (5.1.9)-1) date 2021-07-20 01:30:18*
%MOMM*%
%LPD*%
G01*
G04 APERTURE LIST*
%ADD10C,0.500000*%
%ADD11C,2.100000*%
%ADD12C,3.100000*%
%ADD13C,4.700000*%
%ADD14C,5.760000*%
%ADD15C,1.700000*%
%ADD16O,1.700000X1.700000*%
%ADD17R,1.700000X1.700000*%
%ADD18C,1.500000*%
%ADD19C,1.431000*%
%ADD20C,3.495000*%
%ADD21R,0.440000X1.525000*%
G04 APERTURE END LIST*
D10*
%TO.C,REF\u002A\u002A*%
X170007280Y-106105960D03*
X171074080Y-106105960D03*
X168965880Y-106080560D03*
%TD*%
%TO.C,REF\u002A\u002A*%
X169966640Y-103738680D03*
X171033440Y-103738680D03*
X168925240Y-103713280D03*
%TD*%
%TO.C,REF\u002A\u002A*%
X149961600Y-118237000D03*
X149961600Y-117170200D03*
X149936200Y-119278400D03*
%TD*%
%TO.C,REF\u002A\u002A*%
X152943560Y-118226840D03*
X152943560Y-117160040D03*
X152918160Y-119268240D03*
%TD*%
%TO.C,REF\u002A\u002A*%
X150078440Y-90154760D03*
X150078440Y-89087960D03*
X150053040Y-91196160D03*
%TD*%
%TO.C,REF\u002A\u002A*%
X153233120Y-90164920D03*
X153233120Y-89098120D03*
X153207720Y-91206320D03*
%TD*%
D11*
%TO.C,REF\u002A\u002A*%
X173868080Y-118389400D03*
%TD*%
D12*
%TO.C,REF\u002A\u002A*%
X131500880Y-79298800D03*
D13*
X131500880Y-79298800D03*
%TD*%
D12*
%TO.C,REF\u002A\u002A*%
X146776440Y-79324200D03*
D13*
X146776440Y-79324200D03*
%TD*%
D12*
%TO.C,REF\u002A\u002A*%
X156052520Y-79354680D03*
D13*
X156052520Y-79354680D03*
%TD*%
D12*
%TO.C,REF\u002A\u002A*%
X183388000Y-100980240D03*
D13*
X183388000Y-100980240D03*
%TD*%
D12*
%TO.C,REF\u002A\u002A*%
X183311800Y-79298800D03*
D13*
X183311800Y-79298800D03*
%TD*%
D12*
%TO.C,REF\u002A\u002A*%
X156072840Y-100980240D03*
D13*
X156072840Y-100980240D03*
%TD*%
%TO.C,REF\u002A\u002A*%
X155864560Y-128107440D03*
D12*
X155864560Y-128107440D03*
%TD*%
%TO.C,REF\u002A\u002A*%
X155666440Y-108818680D03*
D13*
X155666440Y-108818680D03*
%TD*%
D12*
%TO.C,REF\u002A\u002A*%
X183499760Y-108747560D03*
D13*
X183499760Y-108747560D03*
%TD*%
%TO.C,REF\u002A\u002A*%
X183591200Y-128102360D03*
D12*
X183591200Y-128102360D03*
%TD*%
%TO.C,REF\u002A\u002A*%
X147101560Y-128148080D03*
D13*
X147101560Y-128148080D03*
%TD*%
%TO.C,REF\u002A\u002A*%
X131226560Y-128127760D03*
D12*
X131226560Y-128127760D03*
%TD*%
D14*
%TO.C,U1*%
X164637720Y-95771400D03*
X157537720Y-88671400D03*
X171737720Y-88671400D03*
X164637720Y-81571400D03*
%TD*%
D15*
%TO.C,SW4*%
X177172760Y-128274200D03*
X170672760Y-128274200D03*
X177172760Y-123774200D03*
X170672760Y-123774200D03*
%TD*%
%TO.C,SW3*%
X178104800Y-116199920D03*
X184604800Y-116199920D03*
X178104800Y-120699920D03*
X184604800Y-120699920D03*
%TD*%
%TO.C,SW2*%
X177121960Y-113095160D03*
X170621960Y-113095160D03*
X177121960Y-108595160D03*
X170621960Y-108595160D03*
%TD*%
%TO.C,SW1*%
X169585640Y-120685560D03*
X163085640Y-120685560D03*
X169585640Y-116185560D03*
X163085640Y-116185560D03*
%TD*%
D16*
%TO.C,J5*%
X157652720Y-123667520D03*
X157652720Y-121127520D03*
X157652720Y-118587520D03*
X157652720Y-116047520D03*
D17*
X157652720Y-113507520D03*
%TD*%
D16*
%TO.C,J4*%
X182595520Y-95031560D03*
X182595520Y-92491560D03*
X182595520Y-89951560D03*
X182595520Y-87411560D03*
D17*
X182595520Y-84871560D03*
%TD*%
D18*
%TO.C,Y1*%
X132816600Y-100892000D03*
X132816600Y-96012000D03*
%TD*%
%TO.C,R1*%
G36*
G01*
X147457840Y-93756160D02*
X146907840Y-93756160D01*
G75*
G02*
X146707840Y-93556160I0J200000D01*
G01*
X146707840Y-93156160D01*
G75*
G02*
X146907840Y-92956160I200000J0D01*
G01*
X147457840Y-92956160D01*
G75*
G02*
X147657840Y-93156160I0J-200000D01*
G01*
X147657840Y-93556160D01*
G75*
G02*
X147457840Y-93756160I-200000J0D01*
G01*
G37*
G36*
G01*
X147457840Y-95406160D02*
X146907840Y-95406160D01*
G75*
G02*
X146707840Y-95206160I0J200000D01*
G01*
X146707840Y-94806160D01*
G75*
G02*
X146907840Y-94606160I200000J0D01*
G01*
X147457840Y-94606160D01*
G75*
G02*
X147657840Y-94806160I0J-200000D01*
G01*
X147657840Y-95206160D01*
G75*
G02*
X147457840Y-95406160I-200000J0D01*
G01*
G37*
%TD*%
D19*
%TO.C,J3*%
X135957720Y-85880120D03*
X138457720Y-85880120D03*
X140457720Y-85880120D03*
X142957720Y-85880120D03*
D20*
X132887720Y-88590120D03*
X146027720Y-88590120D03*
%TD*%
D19*
%TO.C,J2*%
X142788640Y-118022760D03*
X142788640Y-115522760D03*
X142788640Y-113522760D03*
X142788640Y-111022760D03*
D20*
X145498640Y-121092760D03*
X145498640Y-107952760D03*
%TD*%
D19*
%TO.C,J1*%
X132689600Y-118043960D03*
X132689600Y-115543960D03*
X132689600Y-113543960D03*
X132689600Y-111043960D03*
D20*
X135399600Y-121113960D03*
X135399600Y-107973960D03*
%TD*%
D21*
%TO.C,IC1*%
X138542280Y-97968520D03*
X139182280Y-97968520D03*
X139822280Y-97968520D03*
X140462280Y-97968520D03*
X141102280Y-97968520D03*
X141742280Y-97968520D03*
X142382280Y-97968520D03*
X143022280Y-97968520D03*
X143662280Y-97968520D03*
X144302280Y-97968520D03*
X144942280Y-97968520D03*
X145582280Y-97968520D03*
X146222280Y-97968520D03*
X146862280Y-97968520D03*
X146862280Y-103392520D03*
X146222280Y-103392520D03*
X145582280Y-103392520D03*
X144942280Y-103392520D03*
X144302280Y-103392520D03*
X143662280Y-103392520D03*
X143022280Y-103392520D03*
X142382280Y-103392520D03*
X141742280Y-103392520D03*
X141102280Y-103392520D03*
X140462280Y-103392520D03*
X139822280Y-103392520D03*
X139182280Y-103392520D03*
X138542280Y-103392520D03*
%TD*%
%TO.C,C3*%
G36*
G01*
X143417480Y-94498040D02*
X143917480Y-94498040D01*
G75*
G02*
X144142480Y-94723040I0J-225000D01*
G01*
X144142480Y-95173040D01*
G75*
G02*
X143917480Y-95398040I-225000J0D01*
G01*
X143417480Y-95398040D01*
G75*
G02*
X143192480Y-95173040I0J225000D01*
G01*
X143192480Y-94723040D01*
G75*
G02*
X143417480Y-94498040I225000J0D01*
G01*
G37*
G36*
G01*
X143417480Y-92948040D02*
X143917480Y-92948040D01*
G75*
G02*
X144142480Y-93173040I0J-225000D01*
G01*
X144142480Y-93623040D01*
G75*
G02*
X143917480Y-93848040I-225000J0D01*
G01*
X143417480Y-93848040D01*
G75*
G02*
X143192480Y-93623040I0J225000D01*
G01*
X143192480Y-93173040D01*
G75*
G02*
X143417480Y-92948040I225000J0D01*
G01*
G37*
%TD*%
%TO.C,C2*%
G36*
G01*
X141204760Y-93870600D02*
X140704760Y-93870600D01*
G75*
G02*
X140479760Y-93645600I0J225000D01*
G01*
X140479760Y-93195600D01*
G75*
G02*
X140704760Y-92970600I225000J0D01*
G01*
X141204760Y-92970600D01*
G75*
G02*
X141429760Y-93195600I0J-225000D01*
G01*
X141429760Y-93645600D01*
G75*
G02*
X141204760Y-93870600I-225000J0D01*
G01*
G37*
G36*
G01*
X141204760Y-95420600D02*
X140704760Y-95420600D01*
G75*
G02*
X140479760Y-95195600I0J225000D01*
G01*
X140479760Y-94745600D01*
G75*
G02*
X140704760Y-94520600I225000J0D01*
G01*
X141204760Y-94520600D01*
G75*
G02*
X141429760Y-94745600I0J-225000D01*
G01*
X141429760Y-95195600D01*
G75*
G02*
X141204760Y-95420600I-225000J0D01*
G01*
G37*
%TD*%
%TO.C,C1*%
G36*
G01*
X137968800Y-93885840D02*
X137468800Y-93885840D01*
G75*
G02*
X137243800Y-93660840I0J225000D01*
G01*
X137243800Y-93210840D01*
G75*
G02*
X137468800Y-92985840I225000J0D01*
G01*
X137968800Y-92985840D01*
G75*
G02*
X138193800Y-93210840I0J-225000D01*
G01*
X138193800Y-93660840D01*
G75*
G02*
X137968800Y-93885840I-225000J0D01*
G01*
G37*
G36*
G01*
X137968800Y-95435840D02*
X137468800Y-95435840D01*
G75*
G02*
X137243800Y-95210840I0J225000D01*
G01*
X137243800Y-94760840D01*
G75*
G02*
X137468800Y-94535840I225000J0D01*
G01*
X137968800Y-94535840D01*
G75*
G02*
X138193800Y-94760840I0J-225000D01*
G01*
X138193800Y-95210840D01*
G75*
G02*
X137968800Y-95435840I-225000J0D01*
G01*
G37*
%TD*%
M02*
